<svg width="1200" height="800" viewBox="0 0 1200 800" fill="none" xmlns="http://www.w3.org/2000/svg">
  <title>Keyword Ownership Strategy</title>
  <defs>
    <style>
      @import url('https://fonts.googleapis.com/css2?family=Space+Grotesk:wght@400;500;600;700&amp;display=swap');
      text { font-family: 'Space Grotesk', sans-serif; }
    </style>
    <linearGradient id="blueGrad" x1="0%" y1="0%" x2="100%" y2="0%">
      <stop offset="0%" style="stop-color:#3B82F6"/>
      <stop offset="100%" style="stop-color:#60A5FA"/>
    </linearGradient>
    <marker id="arrow" markerWidth="10" markerHeight="7" refX="9" refY="3.5" orient="auto">
      <polygon points="0 0, 10 3.5, 0 7" fill="#1a1a1a" />
    </marker>
    <filter id="shadow" x="-20%" y="-20%" width="140%" height="140%">
      <feDropShadow dx="0" dy="4" stdDeviation="8" flood-opacity="0.1"/>
    </filter>
  </defs>
  
  <!-- Background -->
  <rect width="100%" height="100%" fill="#FAFAFA"/>
  
  <!-- Header -->
  <rect x="0" y="0" width="1200" height="100" fill="#3B82F6"/>
  <text x="60" y="45" font-size="12" font-weight="500" fill="#93C5FD">PILLAR 01</text>
  <text x="60" y="75" font-size="24" font-weight="700" fill="#ffffff">Keyword Ownership Strategy</text>
  <text x="1140" y="60" font-size="14" font-weight="400" fill="#93C5FD" text-anchor="end">← Back to 00_master_overview.svg</text>

  <!-- Goal Statement -->
  <rect x="60" y="130" width="1080" height="70" rx="8" fill="#ffffff" stroke="#E0E0E0" stroke-width="1" filter="url(#shadow)"/>
  <text x="80" y="160" font-size="11" font-weight="600" fill="#3B82F6" letter-spacing="1">GOAL</text>
  <text x="80" y="185" font-size="16" font-weight="600" fill="#1a1a1a">Own 40 high-priority non-branded keywords to establish category leadership</text>

  <!-- Keyword Categories -->
  <text x="60" y="240" font-size="11" font-weight="600" fill="#888888" letter-spacing="2">KEYWORD CATEGORIES</text>

  <!-- Category 1: Core Vector DB -->
  <rect x="60" y="260" width="350" height="240" rx="8" fill="#ffffff" stroke="#3B82F6" stroke-width="2" filter="url(#shadow)"/>
  <rect x="60" y="260" width="350" height="50" rx="8 8 0 0" fill="#3B82F6"/>
  <text x="235" y="292" font-size="14" font-weight="600" fill="#ffffff" text-anchor="middle">Core Vector Database</text>
  <text x="80" y="340" font-size="13" font-weight="500" fill="#1a1a1a">High Volume Keywords</text>
  <rect x="80" y="355" width="310" height="30" rx="4" fill="#EFF6FF"/>
  <text x="95" y="375" font-size="12" font-weight="400" fill="#1a1a1a">"vector database"</text>
  <text x="300" y="375" font-size="11" font-weight="600" fill="#3B82F6" text-anchor="end">12K/mo</text>
  <rect x="80" y="390" width="310" height="30" rx="4" fill="#EFF6FF"/>
  <text x="95" y="410" font-size="12" font-weight="400" fill="#1a1a1a">"what is vector database"</text>
  <text x="300" y="410" font-size="11" font-weight="600" fill="#3B82F6" text-anchor="end">5K/mo</text>
  <rect x="80" y="425" width="310" height="30" rx="4" fill="#EFF6FF"/>
  <text x="95" y="445" font-size="12" font-weight="400" fill="#1a1a1a">"best vector database"</text>
  <text x="300" y="445" font-size="11" font-weight="600" fill="#3B82F6" text-anchor="end">3K/mo</text>
  <rect x="80" y="460" width="310" height="30" rx="4" fill="#EFF6FF"/>
  <text x="95" y="480" font-size="12" font-weight="400" fill="#1a1a1a">"vector database comparison"</text>
  <text x="300" y="480" font-size="11" font-weight="600" fill="#3B82F6" text-anchor="end">2K/mo</text>

  <!-- Category 2: RAG & Retrieval -->
  <rect x="425" y="260" width="350" height="240" rx="8" fill="#ffffff" stroke="#10B981" stroke-width="2" filter="url(#shadow)"/>
  <rect x="425" y="260" width="350" height="50" rx="8 8 0 0" fill="#10B981"/>
  <text x="600" y="292" font-size="14" font-weight="600" fill="#ffffff" text-anchor="middle">RAG &amp; Retrieval</text>
  <text x="445" y="340" font-size="13" font-weight="500" fill="#1a1a1a">Growing Search Terms</text>
  <rect x="445" y="355" width="310" height="30" rx="4" fill="#ECFDF5"/>
  <text x="460" y="375" font-size="12" font-weight="400" fill="#1a1a1a">"retrieval augmented generation"</text>
  <text x="665" y="375" font-size="11" font-weight="600" fill="#10B981" text-anchor="end">8K/mo</text>
  <rect x="445" y="390" width="310" height="30" rx="4" fill="#ECFDF5"/>
  <text x="460" y="410" font-size="12" font-weight="400" fill="#1a1a1a">"RAG tutorial"</text>
  <text x="665" y="410" font-size="11" font-weight="600" fill="#10B981" text-anchor="end">4K/mo</text>
  <rect x="445" y="425" width="310" height="30" rx="4" fill="#ECFDF5"/>
  <text x="460" y="445" font-size="12" font-weight="400" fill="#1a1a1a">"RAG vs fine-tuning"</text>
  <text x="665" y="445" font-size="11" font-weight="600" fill="#10B981" text-anchor="end">2K/mo</text>
  <rect x="445" y="460" width="310" height="30" rx="4" fill="#ECFDF5"/>
  <text x="460" y="480" font-size="12" font-weight="400" fill="#1a1a1a">"RAG implementation"</text>
  <text x="665" y="480" font-size="11" font-weight="600" fill="#10B981" text-anchor="end">1.5K/mo</text>

  <!-- Category 3: Technical Terms -->
  <rect x="790" y="260" width="350" height="240" rx="8" fill="#ffffff" stroke="#8B5CF6" stroke-width="2" filter="url(#shadow)"/>
  <rect x="790" y="260" width="350" height="50" rx="8 8 0 0" fill="#8B5CF6"/>
  <text x="965" y="292" font-size="14" font-weight="600" fill="#ffffff" text-anchor="middle">Technical Terms</text>
  <text x="810" y="340" font-size="13" font-weight="500" fill="#1a1a1a">Developer-Focused</text>
  <rect x="810" y="355" width="310" height="30" rx="4" fill="#F5F3FF"/>
  <text x="825" y="375" font-size="12" font-weight="400" fill="#1a1a1a">"embedding database"</text>
  <text x="1030" y="375" font-size="11" font-weight="600" fill="#8B5CF6" text-anchor="end">6K/mo</text>
  <rect x="810" y="390" width="310" height="30" rx="4" fill="#F5F3FF"/>
  <text x="825" y="410" font-size="12" font-weight="400" fill="#1a1a1a">"semantic search"</text>
  <text x="1030" y="410" font-size="11" font-weight="600" fill="#8B5CF6" text-anchor="end">4K/mo</text>
  <rect x="810" y="425" width="310" height="30" rx="4" fill="#F5F3FF"/>
  <text x="825" y="445" font-size="12" font-weight="400" fill="#1a1a1a">"vector similarity search"</text>
  <text x="1030" y="445" font-size="11" font-weight="600" fill="#8B5CF6" text-anchor="end">2K/mo</text>
  <rect x="810" y="460" width="310" height="30" rx="4" fill="#F5F3FF"/>
  <text x="825" y="480" font-size="12" font-weight="400" fill="#1a1a1a">"python vector database"</text>
  <text x="1030" y="480" font-size="11" font-weight="600" fill="#8B5CF6" text-anchor="end">1K/mo</text>

  <!-- Competitive Keywords Section -->
  <text x="60" y="550" font-size="11" font-weight="600" fill="#888888" letter-spacing="2">COMPETITIVE KEYWORDS (HIGH INTENT)</text>

  <rect x="60" y="570" width="540" height="180" rx="8" fill="#1a1a1a" filter="url(#shadow)"/>
  <text x="80" y="605" font-size="14" font-weight="600" fill="#ffffff">Alternative &amp; Comparison Searches</text>
  <text x="80" y="625" font-size="12" font-weight="400" fill="#888888">Users actively evaluating options — highest conversion potential</text>
  
  <rect x="80" y="645" width="240" height="35" rx="4" fill="#2a2a2a"/>
  <text x="95" y="668" font-size="12" font-weight="500" fill="#FF6B35">"pinecone alternative"</text>
  <rect x="80" y="685" width="240" height="35" rx="4" fill="#2a2a2a"/>
  <text x="95" y="708" font-size="12" font-weight="500" fill="#FF6B35">"qdrant vs chroma"</text>
  
  <rect x="340" y="645" width="240" height="35" rx="4" fill="#2a2a2a"/>
  <text x="355" y="668" font-size="12" font-weight="500" fill="#FF6B35">"weaviate alternative"</text>
  <rect x="340" y="685" width="240" height="35" rx="4" fill="#2a2a2a"/>
  <text x="355" y="708" font-size="12" font-weight="500" fill="#FF6B35">"free vector database"</text>

  <!-- Priority Matrix -->
  <rect x="620" y="570" width="520" height="180" rx="8" fill="#ffffff" stroke="#E0E0E0" stroke-width="1" filter="url(#shadow)"/>
  <text x="640" y="605" font-size="14" font-weight="600" fill="#1a1a1a">Keyword Priority Matrix</text>
  
  <!-- Matrix Grid -->
  <line x1="640" y1="630" x2="1120" y2="630" stroke="#E0E0E0" stroke-width="1"/>
  <text x="660" y="655" font-size="11" font-weight="600" fill="#888888">PRIORITY</text>
  <text x="800" y="655" font-size="11" font-weight="600" fill="#888888">VOLUME</text>
  <text x="920" y="655" font-size="11" font-weight="600" fill="#888888">DIFFICULTY</text>
  <text x="1040" y="655" font-size="11" font-weight="600" fill="#888888">STATUS</text>
  
  <text x="660" y="680" font-size="12" font-weight="400" fill="#1a1a1a">P1 - Must Win</text>
  <text x="800" y="680" font-size="12" font-weight="400" fill="#666666">10K+</text>
  <text x="920" y="680" font-size="12" font-weight="400" fill="#EF4444">High</text>
  <circle cx="1055" cy="676" r="5" fill="#F59E0B"/>
  
  <text x="660" y="705" font-size="12" font-weight="400" fill="#1a1a1a">P2 - Strategic</text>
  <text x="800" y="705" font-size="12" font-weight="400" fill="#666666">2K-10K</text>
  <text x="920" y="705" font-size="12" font-weight="400" fill="#F59E0B">Medium</text>
  <circle cx="1055" cy="701" r="5" fill="#10B981"/>
  
  <text x="660" y="730" font-size="12" font-weight="400" fill="#1a1a1a">P3 - Long-tail</text>
  <text x="800" y="730" font-size="12" font-weight="400" fill="#666666">&lt;2K</text>
  <text x="920" y="730" font-size="12" font-weight="400" fill="#10B981">Low</text>
  <circle cx="1055" cy="726" r="5" fill="#10B981"/>

  <!-- Navigation -->
  <text x="60" y="780" font-size="11" font-weight="500" fill="#888888">Next: 02_programmatic.svg →</text>

</svg>

