<svg width="1200" height="850" viewBox="0 0 1200 850" fill="none" xmlns="http://www.w3.org/2000/svg">
  <title>AI Search &amp; GEO Strategy</title>
  <defs>
    <style>
      @import url('https://fonts.googleapis.com/css2?family=Space+Grotesk:wght@400;500;600;700&amp;display=swap');
      text { font-family: 'Space Grotesk', sans-serif; }
    </style>
    <marker id="arrow" markerWidth="10" markerHeight="7" refX="9" refY="3.5" orient="auto">
      <polygon points="0 0, 10 3.5, 0 7" fill="#1a1a1a" />
    </marker>
    <marker id="arrowPurple" markerWidth="10" markerHeight="7" refX="9" refY="3.5" orient="auto">
      <polygon points="0 0, 10 3.5, 0 7" fill="#8B5CF6" />
    </marker>
    <filter id="shadow" x="-20%" y="-20%" width="140%" height="140%">
      <feDropShadow dx="0" dy="4" stdDeviation="8" flood-opacity="0.1"/>
    </filter>
    <linearGradient id="purpleGrad" x1="0%" y1="0%" x2="100%" y2="100%">
      <stop offset="0%" style="stop-color:#8B5CF6"/>
      <stop offset="100%" style="stop-color:#A78BFA"/>
    </linearGradient>
  </defs>
  
  <!-- Background -->
  <rect width="100%" height="100%" fill="#FAFAFA"/>
  
  <!-- Header -->
  <rect x="0" y="0" width="1200" height="100" fill="#8B5CF6"/>
  <text x="60" y="45" font-size="12" font-weight="500" fill="#DDD6FE">PILLAR 03</text>
  <text x="60" y="75" font-size="24" font-weight="700" fill="#ffffff">AI Search &amp; GEO Strategy</text>
  <text x="1140" y="60" font-size="14" font-weight="400" fill="#DDD6FE" text-anchor="end">← Back to 00_master_overview.svg</text>

  <!-- Why GEO Matters -->
  <rect x="60" y="130" width="1080" height="90" rx="8" fill="#1a1a1a" filter="url(#shadow)"/>
  <text x="80" y="160" font-size="11" font-weight="600" fill="#8B5CF6" letter-spacing="1">WHY GEO MATTERS NOW</text>
  <text x="80" y="185" font-size="14" font-weight="500" fill="#ffffff">Developers increasingly ask ChatGPT, Perplexity, and Claude for recommendations</text>
  <text x="80" y="205" font-size="12" font-weight="400" fill="#888888">"What's the best vector database for RAG?" → If Chroma isn't cited, we lose the deal before it starts</text>

  <!-- The GEO Pipeline -->
  <text x="60" y="260" font-size="11" font-weight="600" fill="#888888" letter-spacing="2">THE GEO PIPELINE</text>

  <!-- Pipeline Steps -->
  <rect x="60" y="280" width="200" height="120" rx="8" fill="#ffffff" stroke="#8B5CF6" stroke-width="2" filter="url(#shadow)"/>
  <text x="160" y="315" font-size="32" font-weight="700" fill="#8B5CF6" text-anchor="middle">1</text>
  <text x="160" y="345" font-size="13" font-weight="600" fill="#1a1a1a" text-anchor="middle">Structure Content</text>
  <text x="160" y="365" font-size="11" font-weight="400" fill="#666666" text-anchor="middle">Clear, factual, retrievable</text>
  <text x="160" y="385" font-size="11" font-weight="400" fill="#666666" text-anchor="middle">Schema markup</text>

  <line x1="260" y1="340" x2="310" y2="340" stroke="#8B5CF6" stroke-width="2" marker-end="url(#arrowPurple)"/>

  <rect x="310" y="280" width="200" height="120" rx="8" fill="#ffffff" stroke="#8B5CF6" stroke-width="2" filter="url(#shadow)"/>
  <text x="410" y="315" font-size="32" font-weight="700" fill="#8B5CF6" text-anchor="middle">2</text>
  <text x="410" y="345" font-size="13" font-weight="600" fill="#1a1a1a" text-anchor="middle">Get Indexed</text>
  <text x="410" y="365" font-size="11" font-weight="400" fill="#666666" text-anchor="middle">LLM training data</text>
  <text x="410" y="385" font-size="11" font-weight="400" fill="#666666" text-anchor="middle">RAG retrieval sources</text>

  <line x1="510" y1="340" x2="560" y2="340" stroke="#8B5CF6" stroke-width="2" marker-end="url(#arrowPurple)"/>

  <rect x="560" y="280" width="200" height="120" rx="8" fill="#ffffff" stroke="#8B5CF6" stroke-width="2" filter="url(#shadow)"/>
  <text x="660" y="315" font-size="32" font-weight="700" fill="#8B5CF6" text-anchor="middle">3</text>
  <text x="660" y="345" font-size="13" font-weight="600" fill="#1a1a1a" text-anchor="middle">LLM Retrieves</text>
  <text x="660" y="365" font-size="11" font-weight="400" fill="#666666" text-anchor="middle">User asks question</text>
  <text x="660" y="385" font-size="11" font-weight="400" fill="#666666" text-anchor="middle">LLM finds Chroma content</text>

  <line x1="760" y1="340" x2="810" y2="340" stroke="#8B5CF6" stroke-width="2" marker-end="url(#arrowPurple)"/>

  <rect x="810" y="280" width="200" height="120" rx="8" fill="url(#purpleGrad)" filter="url(#shadow)"/>
  <text x="910" y="315" font-size="32" font-weight="700" fill="#ffffff" text-anchor="middle">4</text>
  <text x="910" y="345" font-size="13" font-weight="600" fill="#ffffff" text-anchor="middle">Get Cited</text>
  <text x="910" y="365" font-size="11" font-weight="400" fill="#DDD6FE" text-anchor="middle">Chroma recommended</text>
  <text x="910" y="385" font-size="11" font-weight="400" fill="#DDD6FE" text-anchor="middle">User clicks through</text>

  <rect x="1030" y="280" width="110" height="120" rx="8" fill="#1a1a1a" filter="url(#shadow)"/>
  <text x="1085" y="330" font-size="24" font-weight="700" fill="#10B981" text-anchor="middle">→</text>
  <text x="1085" y="360" font-size="13" font-weight="600" fill="#ffffff" text-anchor="middle">Signup</text>
  <text x="1085" y="380" font-size="11" font-weight="400" fill="#888888" text-anchor="middle">Revenue</text>

  <!-- Target Platforms -->
  <text x="60" y="440" font-size="11" font-weight="600" fill="#888888" letter-spacing="2">TARGET AI PLATFORMS</text>

  <rect x="60" y="460" width="260" height="150" rx="8" fill="#ffffff" stroke="#E0E0E0" stroke-width="1" filter="url(#shadow)"/>
  <rect x="80" y="480" width="40" height="40" rx="8" fill="#10A37F"/>
  <text x="100" y="507" font-size="18" font-weight="700" fill="#ffffff" text-anchor="middle">⬡</text>
  <text x="135" y="500" font-size="14" font-weight="600" fill="#1a1a1a">ChatGPT / OpenAI</text>
  <text x="135" y="520" font-size="11" font-weight="400" fill="#666666">Primary target - highest dev usage</text>
  <text x="80" y="555" font-size="11" font-weight="400" fill="#666666">Key queries to win:</text>
  <text x="80" y="575" font-size="11" font-weight="400" fill="#1a1a1a">• "best vector database for RAG"</text>
  <text x="80" y="595" font-size="11" font-weight="400" fill="#1a1a1a">• "how to build semantic search"</text>

  <rect x="340" y="460" width="260" height="150" rx="8" fill="#ffffff" stroke="#E0E0E0" stroke-width="1" filter="url(#shadow)"/>
  <rect x="360" y="480" width="40" height="40" rx="8" fill="#1a1a1a"/>
  <text x="380" y="507" font-size="18" font-weight="700" fill="#ffffff" text-anchor="middle">P</text>
  <text x="415" y="500" font-size="14" font-weight="600" fill="#1a1a1a">Perplexity AI</text>
  <text x="415" y="520" font-size="11" font-weight="400" fill="#666666">Research-focused, cites sources</text>
  <text x="360" y="555" font-size="11" font-weight="400" fill="#666666">Key queries to win:</text>
  <text x="360" y="575" font-size="11" font-weight="400" fill="#1a1a1a">• "vector database comparison 2025"</text>
  <text x="360" y="595" font-size="11" font-weight="400" fill="#1a1a1a">• "chroma vs pinecone"</text>

  <rect x="620" y="460" width="260" height="150" rx="8" fill="#ffffff" stroke="#E0E0E0" stroke-width="1" filter="url(#shadow)"/>
  <rect x="640" y="480" width="40" height="40" rx="8" fill="#4285F4"/>
  <text x="660" y="507" font-size="18" font-weight="700" fill="#ffffff" text-anchor="middle">G</text>
  <text x="695" y="500" font-size="14" font-weight="600" fill="#1a1a1a">Google AI Overviews</text>
  <text x="695" y="520" font-size="11" font-weight="400" fill="#666666">Appears above search results</text>
  <text x="640" y="555" font-size="11" font-weight="400" fill="#666666">Key queries to win:</text>
  <text x="640" y="575" font-size="11" font-weight="400" fill="#1a1a1a">• "what is a vector database"</text>
  <text x="640" y="595" font-size="11" font-weight="400" fill="#1a1a1a">• "embedding database explained"</text>

  <rect x="900" y="460" width="240" height="150" rx="8" fill="#ffffff" stroke="#E0E0E0" stroke-width="1" filter="url(#shadow)"/>
  <rect x="920" y="480" width="40" height="40" rx="8" fill="#D97706"/>
  <text x="940" y="507" font-size="18" font-weight="700" fill="#ffffff" text-anchor="middle">A</text>
  <text x="975" y="500" font-size="14" font-weight="600" fill="#1a1a1a">Claude / Anthropic</text>
  <text x="975" y="520" font-size="11" font-weight="400" fill="#666666">Developer favorite</text>
  <text x="920" y="555" font-size="11" font-weight="400" fill="#666666">Key queries to win:</text>
  <text x="920" y="575" font-size="11" font-weight="400" fill="#1a1a1a">• "python vector store"</text>
  <text x="920" y="595" font-size="11" font-weight="400" fill="#1a1a1a">• "langchain vector db"</text>

  <!-- Content Optimization Tactics -->
  <text x="60" y="650" font-size="11" font-weight="600" fill="#888888" letter-spacing="2">GEO CONTENT OPTIMIZATION TACTICS</text>

  <rect x="60" y="670" width="350" height="140" rx="8" fill="#ffffff" stroke="#E0E0E0" stroke-width="1" filter="url(#shadow)"/>
  <text x="80" y="705" font-size="13" font-weight="600" fill="#1a1a1a">Retrieval-First Structure</text>
  <circle cx="90" cy="730" r="4" fill="#8B5CF6"/>
  <text x="105" y="734" font-size="11" font-weight="400" fill="#666666">Lead with clear, factual answers</text>
  <circle cx="90" cy="755" r="4" fill="#8B5CF6"/>
  <text x="105" y="759" font-size="11" font-weight="400" fill="#666666">Use structured data (FAQ schema)</text>
  <circle cx="90" cy="780" r="4" fill="#8B5CF6"/>
  <text x="105" y="784" font-size="11" font-weight="400" fill="#666666">Include definitive statements</text>

  <rect x="430" y="670" width="350" height="140" rx="8" fill="#ffffff" stroke="#E0E0E0" stroke-width="1" filter="url(#shadow)"/>
  <text x="450" y="705" font-size="13" font-weight="600" fill="#1a1a1a">Authority Signals</text>
  <circle cx="460" cy="730" r="4" fill="#10B981"/>
  <text x="475" y="734" font-size="11" font-weight="400" fill="#666666">Cite sources and benchmarks</text>
  <circle cx="460" cy="755" r="4" fill="#10B981"/>
  <text x="475" y="759" font-size="11" font-weight="400" fill="#666666">Include expert quotes</text>
  <circle cx="460" cy="780" r="4" fill="#10B981"/>
  <text x="475" y="784" font-size="11" font-weight="400" fill="#666666">Link to documentation</text>

  <rect x="800" y="670" width="340" height="140" rx="8" fill="#ffffff" stroke="#E0E0E0" stroke-width="1" filter="url(#shadow)"/>
  <text x="820" y="705" font-size="13" font-weight="600" fill="#1a1a1a">Technical Depth</text>
  <circle cx="830" cy="730" r="4" fill="#F59E0B"/>
  <text x="845" y="734" font-size="11" font-weight="400" fill="#666666">Code examples that work</text>
  <circle cx="830" cy="755" r="4" fill="#F59E0B"/>
  <text x="845" y="759" font-size="11" font-weight="400" fill="#666666">Real performance numbers</text>
  <circle cx="830" cy="780" r="4" fill="#F59E0B"/>
  <text x="845" y="784" font-size="11" font-weight="400" fill="#666666">Step-by-step tutorials</text>

  <!-- Navigation -->
  <text x="60" y="840" font-size="11" font-weight="500" fill="#888888">← 02_programmatic.svg | Next: 04_competitive.svg →</text>

</svg>

