<svg width="1200" height="900" viewBox="0 0 1200 900" fill="none" xmlns="http://www.w3.org/2000/svg">
  <title>Competitive Battle Map</title>
  <defs>
    <style>
      @import url('https://fonts.googleapis.com/css2?family=Space+Grotesk:wght@400;500;600;700&amp;display=swap');
      text { font-family: 'Space Grotesk', sans-serif; }
    </style>
    <filter id="shadow" x="-20%" y="-20%" width="140%" height="140%">
      <feDropShadow dx="0" dy="4" stdDeviation="8" flood-opacity="0.1"/>
    </filter>
    <linearGradient id="orangeGrad" x1="0%" y1="0%" x2="100%" y2="0%">
      <stop offset="0%" style="stop-color:#F59E0B"/>
      <stop offset="100%" style="stop-color:#FBBF24"/>
    </linearGradient>
  </defs>
  
  <!-- Background -->
  <rect width="100%" height="100%" fill="#FAFAFA"/>
  
  <!-- Header -->
  <rect x="0" y="0" width="1200" height="100" fill="#F59E0B"/>
  <text x="60" y="45" font-size="12" font-weight="500" fill="#FEF3C7">PILLAR 04</text>
  <text x="60" y="75" font-size="24" font-weight="700" fill="#ffffff">Competitive Battle Map</text>
  <text x="1140" y="60" font-size="14" font-weight="400" fill="#FEF3C7" text-anchor="end">← Back to 00_master_overview.svg</text>

  <!-- Mission Statement -->
  <rect x="60" y="130" width="1080" height="70" rx="8" fill="#1a1a1a" filter="url(#shadow)"/>
  <text x="80" y="160" font-size="11" font-weight="600" fill="#F59E0B" letter-spacing="1">MISSION</text>
  <text x="80" y="185" font-size="16" font-weight="600" fill="#ffffff">Outrank Pinecone on every core keyword. Own the "vector database" category in search.</text>

  <!-- Competitor Landscape -->
  <text x="60" y="240" font-size="11" font-weight="600" fill="#888888" letter-spacing="2">COMPETITOR LANDSCAPE</text>

  <!-- Primary Competitor: Pinecone -->
  <rect x="60" y="260" width="540" height="200" rx="8" fill="#ffffff" stroke="#EF4444" stroke-width="2" filter="url(#shadow)"/>
  <rect x="60" y="260" width="540" height="50" rx="8 8 0 0" fill="#EF4444"/>
  <text x="80" y="292" font-size="14" font-weight="600" fill="#ffffff">🎯 PRIMARY TARGET: Pinecone</text>
  <text x="540" y="292" font-size="11" font-weight="500" fill="#FEE2E2" text-anchor="end">pinecone.io</text>
  
  <text x="80" y="340" font-size="12" font-weight="500" fill="#1a1a1a">Current SEO Dominance:</text>
  <text x="80" y="365" font-size="11" font-weight="400" fill="#666666">• Ranks #1 for "what is vector database"</text>
  <text x="80" y="385" font-size="11" font-weight="400" fill="#666666">• Strong presence on "vector database" head term</text>
  <text x="80" y="405" font-size="11" font-weight="400" fill="#666666">• Extensive programmatic content (comparisons, integrations)</text>
  
  <line x1="330" y1="330" x2="330" y2="450" stroke="#E0E0E0" stroke-width="1"/>
  
  <text x="350" y="340" font-size="12" font-weight="500" fill="#1a1a1a">Chroma's Attack Strategy:</text>
  <text x="350" y="365" font-size="11" font-weight="400" fill="#666666">• "pinecone alternative" pages</text>
  <text x="350" y="385" font-size="11" font-weight="400" fill="#666666">• "pinecone vs chroma" comparison</text>
  <text x="350" y="405" font-size="11" font-weight="400" fill="#666666">• Open-source angle differentiation</text>
  <text x="350" y="425" font-size="11" font-weight="400" fill="#666666">• Developer experience focus</text>
  <text x="350" y="445" font-size="11" font-weight="400" fill="#666666">• Self-hosted / privacy messaging</text>

  <!-- Secondary Competitors -->
  <rect x="620" y="260" width="260" height="200" rx="8" fill="#ffffff" stroke="#E0E0E0" stroke-width="1" filter="url(#shadow)"/>
  <text x="640" y="295" font-size="13" font-weight="600" fill="#1a1a1a">Secondary Targets</text>
  <line x1="640" y1="310" x2="860" y2="310" stroke="#E0E0E0" stroke-width="1"/>
  
  <rect x="640" y="325" width="220" height="35" rx="4" fill="#F5F5F5"/>
  <text x="655" y="348" font-size="12" font-weight="500" fill="#1a1a1a">Qdrant</text>
  <text x="845" y="348" font-size="10" font-weight="400" fill="#666666" text-anchor="end">qdrant.tech</text>
  
  <rect x="640" y="365" width="220" height="35" rx="4" fill="#F5F5F5"/>
  <text x="655" y="388" font-size="12" font-weight="500" fill="#1a1a1a">Weaviate</text>
  <text x="845" y="388" font-size="10" font-weight="400" fill="#666666" text-anchor="end">weaviate.io</text>
  
  <rect x="640" y="405" width="220" height="35" rx="4" fill="#F5F5F5"/>
  <text x="655" y="428" font-size="12" font-weight="500" fill="#1a1a1a">Turbopuffer</text>
  <text x="845" y="428" font-size="10" font-weight="400" fill="#666666" text-anchor="end">turbopuffer.com</text>

  <!-- Watch List -->
  <rect x="900" y="260" width="240" height="200" rx="8" fill="#ffffff" stroke="#E0E0E0" stroke-width="1" filter="url(#shadow)"/>
  <text x="920" y="295" font-size="13" font-weight="600" fill="#1a1a1a">Watch List</text>
  <line x1="920" y1="310" x2="1120" y2="310" stroke="#E0E0E0" stroke-width="1"/>
  
  <text x="920" y="340" font-size="11" font-weight="400" fill="#666666">• Vespa (vespa.ai)</text>
  <text x="920" y="365" font-size="11" font-weight="400" fill="#666666">• Milvus (milvus.io)</text>
  <text x="920" y="390" font-size="11" font-weight="400" fill="#666666">• pgvector (PostgreSQL)</text>
  <text x="920" y="415" font-size="11" font-weight="400" fill="#666666">• Supabase Vector</text>
  <text x="920" y="440" font-size="11" font-weight="400" fill="#666666">• MongoDB Atlas Vector</text>

  <!-- Competitive Keywords Matrix -->
  <text x="60" y="500" font-size="11" font-weight="600" fill="#888888" letter-spacing="2">COMPETITIVE KEYWORD MATRIX</text>

  <rect x="60" y="520" width="1080" height="220" rx="8" fill="#ffffff" stroke="#E0E0E0" stroke-width="1" filter="url(#shadow)"/>
  
  <!-- Table Header -->
  <rect x="60" y="520" width="1080" height="40" rx="8 8 0 0" fill="#1a1a1a"/>
  <text x="120" y="545" font-size="11" font-weight="600" fill="#ffffff">KEYWORD</text>
  <text x="400" y="545" font-size="11" font-weight="600" fill="#ffffff">CURRENT LEADER</text>
  <text x="600" y="545" font-size="11" font-weight="600" fill="#ffffff">CHROMA POSITION</text>
  <text x="800" y="545" font-size="11" font-weight="600" fill="#ffffff">TARGET</text>
  <text x="950" y="545" font-size="11" font-weight="600" fill="#ffffff">PRIORITY</text>

  <!-- Row 1 -->
  <text x="120" y="585" font-size="12" font-weight="400" fill="#1a1a1a">"vector database"</text>
  <text x="400" y="585" font-size="12" font-weight="400" fill="#EF4444">Pinecone #1</text>
  <text x="600" y="585" font-size="12" font-weight="400" fill="#666666">Not ranking</text>
  <text x="800" y="585" font-size="12" font-weight="600" fill="#10B981">Top 3</text>
  <rect x="950" y="570" width="60" height="22" rx="4" fill="#EF4444"/>
  <text x="980" y="585" font-size="10" font-weight="600" fill="#ffffff" text-anchor="middle">P1</text>

  <!-- Row 2 -->
  <rect x="80" y="600" width="1040" height="35" fill="#F9FAFB"/>
  <text x="120" y="623" font-size="12" font-weight="400" fill="#1a1a1a">"pinecone alternative"</text>
  <text x="400" y="623" font-size="12" font-weight="400" fill="#EF4444">Pinecone #1</text>
  <text x="600" y="623" font-size="12" font-weight="400" fill="#666666">Not ranking</text>
  <text x="800" y="623" font-size="12" font-weight="600" fill="#10B981">#1</text>
  <rect x="950" y="608" width="60" height="22" rx="4" fill="#EF4444"/>
  <text x="980" y="623" font-size="10" font-weight="600" fill="#ffffff" text-anchor="middle">P1</text>

  <!-- Row 3 -->
  <text x="120" y="660" font-size="12" font-weight="400" fill="#1a1a1a">"qdrant vs chroma"</text>
  <text x="400" y="660" font-size="12" font-weight="400" fill="#666666">Mixed results</text>
  <text x="600" y="660" font-size="12" font-weight="400" fill="#666666">Page 2</text>
  <text x="800" y="660" font-size="12" font-weight="600" fill="#10B981">#1</text>
  <rect x="950" y="645" width="60" height="22" rx="4" fill="#F59E0B"/>
  <text x="980" y="660" font-size="10" font-weight="600" fill="#ffffff" text-anchor="middle">P2</text>

  <!-- Row 4 -->
  <rect x="80" y="675" width="1040" height="35" fill="#F9FAFB"/>
  <text x="120" y="698" font-size="12" font-weight="400" fill="#1a1a1a">"open source vector database"</text>
  <text x="400" y="698" font-size="12" font-weight="400" fill="#666666">Milvus #1</text>
  <text x="600" y="698" font-size="12" font-weight="400" fill="#666666">Page 2</text>
  <text x="800" y="698" font-size="12" font-weight="600" fill="#10B981">Top 3</text>
  <rect x="950" y="683" width="60" height="22" rx="4" fill="#F59E0B"/>
  <text x="980" y="698" font-size="10" font-weight="600" fill="#ffffff" text-anchor="middle">P2</text>

  <!-- Row 5 -->
  <text x="120" y="725" font-size="12" font-weight="400" fill="#1a1a1a">"langchain vector store"</text>
  <text x="400" y="725" font-size="12" font-weight="400" fill="#666666">LangChain docs</text>
  <text x="600" y="725" font-size="12" font-weight="400" fill="#666666">Not ranking</text>
  <text x="800" y="725" font-size="12" font-weight="600" fill="#10B981">Top 5</text>
  <rect x="950" y="710" width="60" height="22" rx="4" fill="#3B82F6"/>
  <text x="980" y="725" font-size="10" font-weight="600" fill="#ffffff" text-anchor="middle">P3</text>

  <!-- Chroma's Competitive Advantages -->
  <text x="60" y="780" font-size="11" font-weight="600" fill="#888888" letter-spacing="2">CHROMA'S COMPETITIVE ADVANTAGES TO HIGHLIGHT</text>

  <rect x="60" y="800" width="260" height="70" rx="8" fill="#1a1a1a" filter="url(#shadow)"/>
  <text x="80" y="830" font-size="13" font-weight="600" fill="#10B981">Open Source</text>
  <text x="80" y="850" font-size="11" font-weight="400" fill="#888888">No vendor lock-in, self-host option</text>

  <rect x="340" y="800" width="260" height="70" rx="8" fill="#1a1a1a" filter="url(#shadow)"/>
  <text x="360" y="830" font-size="13" font-weight="600" fill="#3B82F6">Developer Experience</text>
  <text x="360" y="850" font-size="11" font-weight="400" fill="#888888">Simple API, Python-native</text>

  <rect x="620" y="800" width="260" height="70" rx="8" fill="#1a1a1a" filter="url(#shadow)"/>
  <text x="640" y="830" font-size="13" font-weight="600" fill="#8B5CF6">AI-Native</text>
  <text x="640" y="850" font-size="11" font-weight="400" fill="#888888">Built for LLM/RAG workflows</text>

  <rect x="900" y="800" width="240" height="70" rx="8" fill="#1a1a1a" filter="url(#shadow)"/>
  <text x="920" y="830" font-size="13" font-weight="600" fill="#F59E0B">Cost Effective</text>
  <text x="920" y="850" font-size="11" font-weight="400" fill="#888888">Free tier, transparent pricing</text>

  <!-- Navigation -->
  <text x="60" y="895" font-size="11" font-weight="500" fill="#888888">← 03_ai_search.svg | Next: 05_audience.svg →</text>

</svg>

