<svg width="1200" height="850" viewBox="0 0 1200 850" fill="none" xmlns="http://www.w3.org/2000/svg">
  <title>Success Metrics &amp; KPIs</title>
  <defs>
    <style>
      @import url('https://fonts.googleapis.com/css2?family=Space+Grotesk:wght@400;500;600;700&amp;display=swap');
      text { font-family: 'Space Grotesk', sans-serif; }
    </style>
    <filter id="shadow" x="-20%" y="-20%" width="140%" height="140%">
      <feDropShadow dx="0" dy="4" stdDeviation="8" flood-opacity="0.1"/>
    </filter>
    <linearGradient id="successGrad" x1="0%" y1="0%" x2="100%" y2="0%">
      <stop offset="0%" style="stop-color:#10B981"/>
      <stop offset="100%" style="stop-color:#34D399"/>
    </linearGradient>
  </defs>
  
  <!-- Background -->
  <rect width="100%" height="100%" fill="#FAFAFA"/>
  
  <!-- Header -->
  <rect x="0" y="0" width="1200" height="100" fill="#059669"/>
  <text x="60" y="45" font-size="12" font-weight="500" fill="#A7F3D0">EXECUTION</text>
  <text x="60" y="75" font-size="24" font-weight="700" fill="#ffffff">Success Metrics &amp; KPIs</text>
  <text x="1140" y="60" font-size="14" font-weight="400" fill="#A7F3D0" text-anchor="end">← Back to 00_master_overview.svg</text>

  <!-- Aggressive Targets Banner -->
  <rect x="60" y="130" width="1080" height="70" rx="8" fill="#1a1a1a" filter="url(#shadow)"/>
  <text x="80" y="160" font-size="11" font-weight="600" fill="#10B981" letter-spacing="1">AGGRESSIVE TARGETS</text>
  <text x="80" y="185" font-size="14" font-weight="500" fill="#ffffff">Win the SEO war against Pinecone. Category dominance in 6 months. Weekly tracking, not quarterly.</text>

  <!-- Primary KPIs -->
  <text x="60" y="240" font-size="11" font-weight="600" fill="#888888" letter-spacing="2">PRIMARY KPIs</text>

  <!-- KPI 1: Traffic -->
  <rect x="60" y="260" width="260" height="180" rx="8" fill="#ffffff" stroke="#10B981" stroke-width="2" filter="url(#shadow)"/>
  <rect x="60" y="260" width="260" height="10" rx="8 8 0 0" fill="#10B981"/>
  <text x="190" y="310" font-size="48" font-weight="700" fill="#10B981" text-anchor="middle">5x</text>
  <text x="190" y="340" font-size="14" font-weight="600" fill="#1a1a1a" text-anchor="middle">Organic Traffic Growth</text>
  <line x1="80" y1="360" x2="300" y2="360" stroke="#E0E0E0" stroke-width="1"/>
  <text x="190" y="385" font-size="11" font-weight="400" fill="#666666" text-anchor="middle">Baseline → 5x in 6 months</text>
  <text x="190" y="405" font-size="11" font-weight="400" fill="#666666" text-anchor="middle">Track: Weekly velocity</text>
  <text x="190" y="425" font-size="11" font-weight="400" fill="#666666" text-anchor="middle">Source: Google Analytics</text>

  <!-- KPI 2: Rankings -->
  <rect x="340" y="260" width="260" height="180" rx="8" fill="#ffffff" stroke="#3B82F6" stroke-width="2" filter="url(#shadow)"/>
  <rect x="340" y="260" width="260" height="10" rx="8 8 0 0" fill="#3B82F6"/>
  <text x="470" y="310" font-size="48" font-weight="700" fill="#3B82F6" text-anchor="middle">#1</text>
  <text x="470" y="340" font-size="14" font-weight="600" fill="#1a1a1a" text-anchor="middle">Core Keyword Rankings</text>
  <line x1="360" y1="360" x2="580" y2="360" stroke="#E0E0E0" stroke-width="1"/>
  <text x="470" y="385" font-size="11" font-weight="400" fill="#666666" text-anchor="middle">Top 3 for all P1 keywords</text>
  <text x="470" y="405" font-size="11" font-weight="400" fill="#666666" text-anchor="middle">Track: Weekly rank changes</text>
  <text x="470" y="425" font-size="11" font-weight="400" fill="#666666" text-anchor="middle">Source: Ahrefs/SEMrush</text>

  <!-- KPI 3: Pipeline -->
  <rect x="620" y="260" width="260" height="180" rx="8" fill="#ffffff" stroke="#8B5CF6" stroke-width="2" filter="url(#shadow)"/>
  <rect x="620" y="260" width="260" height="10" rx="8 8 0 0" fill="#8B5CF6"/>
  <text x="750" y="310" font-size="48" font-weight="700" fill="#8B5CF6" text-anchor="middle">90d</text>
  <text x="750" y="340" font-size="14" font-weight="600" fill="#1a1a1a" text-anchor="middle">Pipeline Impact</text>
  <line x1="640" y1="360" x2="860" y2="360" stroke="#E0E0E0" stroke-width="1"/>
  <text x="750" y="385" font-size="11" font-weight="400" fill="#666666" text-anchor="middle">Measurable leads by day 90</text>
  <text x="750" y="405" font-size="11" font-weight="400" fill="#666666" text-anchor="middle">Track: Monthly attribution</text>
  <text x="750" y="425" font-size="11" font-weight="400" fill="#666666" text-anchor="middle">Source: CRM + GA</text>

  <!-- KPI 4: AI Citations -->
  <rect x="900" y="260" width="240" height="180" rx="8" fill="#ffffff" stroke="#F59E0B" stroke-width="2" filter="url(#shadow)"/>
  <rect x="900" y="260" width="240" height="10" rx="8 8 0 0" fill="#F59E0B"/>
  <text x="1020" y="310" font-size="48" font-weight="700" fill="#F59E0B" text-anchor="middle">↑</text>
  <text x="1020" y="340" font-size="14" font-weight="600" fill="#1a1a1a" text-anchor="middle">AI Search Citations</text>
  <line x1="920" y1="360" x2="1120" y2="360" stroke="#E0E0E0" stroke-width="1"/>
  <text x="1020" y="385" font-size="11" font-weight="400" fill="#666666" text-anchor="middle">Cited in ChatGPT/Perplexity</text>
  <text x="1020" y="405" font-size="11" font-weight="400" fill="#666666" text-anchor="middle">Track: Monthly audits</text>
  <text x="1020" y="425" font-size="11" font-weight="400" fill="#666666" text-anchor="middle">Source: Manual testing</text>

  <!-- Tracking Cadence -->
  <text x="60" y="480" font-size="11" font-weight="600" fill="#888888" letter-spacing="2">TRACKING CADENCE</text>

  <rect x="60" y="500" width="1080" height="140" rx="8" fill="#ffffff" stroke="#E0E0E0" stroke-width="1" filter="url(#shadow)"/>
  
  <!-- Weekly -->
  <rect x="80" y="520" width="320" height="100" rx="4" fill="#ECFDF5"/>
  <text x="100" y="550" font-size="13" font-weight="600" fill="#059669">Weekly</text>
  <text x="100" y="575" font-size="11" font-weight="400" fill="#666666">• Keyword ranking movements</text>
  <text x="100" y="595" font-size="11" font-weight="400" fill="#666666">• Traffic velocity (WoW growth)</text>
  <text x="100" y="615" font-size="11" font-weight="400" fill="#666666">• Content publication pace</text>

  <!-- Monthly -->
  <rect x="420" y="520" width="320" height="100" rx="4" fill="#EFF6FF"/>
  <text x="440" y="550" font-size="13" font-weight="600" fill="#3B82F6">Monthly</text>
  <text x="440" y="575" font-size="11" font-weight="400" fill="#666666">• Full traffic report + attribution</text>
  <text x="440" y="595" font-size="11" font-weight="400" fill="#666666">• Lead source breakdown</text>
  <text x="440" y="615" font-size="11" font-weight="400" fill="#666666">• Competitive share of voice</text>

  <!-- Quarterly -->
  <rect x="760" y="520" width="360" height="100" rx="4" fill="#F5F3FF"/>
  <text x="780" y="550" font-size="13" font-weight="600" fill="#8B5CF6">Quarterly</text>
  <text x="780" y="575" font-size="11" font-weight="400" fill="#666666">• Pipeline impact review</text>
  <text x="780" y="595" font-size="11" font-weight="400" fill="#666666">• ROI calculation</text>
  <text x="780" y="615" font-size="11" font-weight="400" fill="#666666">• Strategy adjustment decisions</text>

  <!-- Success Milestones -->
  <text x="60" y="680" font-size="11" font-weight="600" fill="#888888" letter-spacing="2">SUCCESS MILESTONES</text>

  <rect x="60" y="700" width="1080" height="110" rx="8" fill="#1a1a1a" filter="url(#shadow)"/>
  
  <!-- Month 1-2 -->
  <text x="140" y="740" font-size="13" font-weight="600" fill="#ffffff" text-anchor="middle">Month 1-2</text>
  <text x="140" y="765" font-size="11" font-weight="400" fill="#888888" text-anchor="middle">Foundation set</text>
  <text x="140" y="785" font-size="11" font-weight="400" fill="#888888" text-anchor="middle">First rankings</text>
  <circle cx="140" cy="795" r="6" fill="#10B981"/>
  
  <line x1="200" y1="770" x2="280" y2="770" stroke="#333333" stroke-width="2"/>
  
  <!-- Month 3 -->
  <text x="340" y="740" font-size="13" font-weight="600" fill="#ffffff" text-anchor="middle">Month 3</text>
  <text x="340" y="765" font-size="11" font-weight="400" fill="#888888" text-anchor="middle">Traffic 2x</text>
  <text x="340" y="785" font-size="11" font-weight="400" fill="#888888" text-anchor="middle">First leads</text>
  <circle cx="340" cy="795" r="6" fill="#3B82F6"/>
  
  <line x1="400" y1="770" x2="480" y2="770" stroke="#333333" stroke-width="2"/>
  
  <!-- Month 4 -->
  <text x="540" y="740" font-size="13" font-weight="600" fill="#ffffff" text-anchor="middle">Month 4</text>
  <text x="540" y="765" font-size="11" font-weight="400" fill="#888888" text-anchor="middle">Outrank Pinecone</text>
  <text x="540" y="785" font-size="11" font-weight="400" fill="#888888" text-anchor="middle">on 5+ keywords</text>
  <circle cx="540" cy="795" r="6" fill="#8B5CF6"/>
  
  <line x1="600" y1="770" x2="680" y2="770" stroke="#333333" stroke-width="2"/>
  
  <!-- Month 5 -->
  <text x="740" y="740" font-size="13" font-weight="600" fill="#ffffff" text-anchor="middle">Month 5</text>
  <text x="740" y="765" font-size="11" font-weight="400" fill="#888888" text-anchor="middle">Traffic 3.5x</text>
  <text x="740" y="785" font-size="11" font-weight="400" fill="#888888" text-anchor="middle">Pipeline growing</text>
  <circle cx="740" cy="795" r="6" fill="#F59E0B"/>
  
  <line x1="800" y1="770" x2="880" y2="770" stroke="#333333" stroke-width="2"/>
  
  <!-- Month 6 -->
  <text x="940" y="740" font-size="13" font-weight="600" fill="#10B981" text-anchor="middle">Month 6</text>
  <text x="940" y="765" font-size="11" font-weight="400" fill="#10B981" text-anchor="middle">5x Traffic ✓</text>
  <text x="940" y="785" font-size="11" font-weight="400" fill="#10B981" text-anchor="middle">Category leader</text>
  <circle cx="940" cy="795" r="8" fill="#10B981"/>
  
  <line x1="1000" y1="770" x2="1080" y2="770" stroke="#10B981" stroke-width="2"/>
  
  <text x="1100" y="770" font-size="20" font-weight="700" fill="#10B981" text-anchor="middle">🎯</text>

  <!-- Navigation -->
  <text x="60" y="840" font-size="11" font-weight="500" fill="#888888">← 05_audience.svg | Next: 07_timeline.svg →</text>

</svg>

