<svg width="1200" height="900" viewBox="0 0 1200 900" fill="none" xmlns="http://www.w3.org/2000/svg">
  <title>Implementation Timeline</title>
  <defs>
    <style>
      @import url('https://fonts.googleapis.com/css2?family=Space+Grotesk:wght@400;500;600;700&amp;display=swap');
      text { font-family: 'Space Grotesk', sans-serif; }
    </style>
    <filter id="shadow" x="-20%" y="-20%" width="140%" height="140%">
      <feDropShadow dx="0" dy="4" stdDeviation="8" flood-opacity="0.1"/>
    </filter>
    <linearGradient id="timelineGrad" x1="0%" y1="0%" x2="100%" y2="0%">
      <stop offset="0%" style="stop-color:#3B82F6"/>
      <stop offset="25%" style="stop-color:#10B981"/>
      <stop offset="50%" style="stop-color:#8B5CF6"/>
      <stop offset="75%" style="stop-color:#F59E0B"/>
      <stop offset="100%" style="stop-color:#EF4444"/>
    </linearGradient>
  </defs>
  
  <!-- Background -->
  <rect width="100%" height="100%" fill="#FAFAFA"/>
  
  <!-- Header -->
  <rect x="0" y="0" width="1200" height="100" fill="#1a1a1a"/>
  <text x="60" y="45" font-size="12" font-weight="500" fill="#888888">EXECUTION</text>
  <text x="60" y="75" font-size="24" font-weight="700" fill="#ffffff">Implementation Timeline</text>
  <text x="1140" y="60" font-size="14" font-weight="400" fill="#888888" text-anchor="end">← Back to 00_master_overview.svg</text>

  <!-- Timeline Visual -->
  <rect x="60" y="130" width="1080" height="20" rx="10" fill="#E0E0E0"/>
  <rect x="60" y="130" width="1080" height="20" rx="10" fill="url(#timelineGrad)"/>
  
  <!-- Month markers -->
  <circle cx="60" cy="140" r="12" fill="#3B82F6" stroke="#ffffff" stroke-width="3"/>
  <text x="60" y="175" font-size="11" font-weight="600" fill="#3B82F6" text-anchor="middle">M1</text>
  
  <circle cx="240" cy="140" r="12" fill="#3B82F6" stroke="#ffffff" stroke-width="3"/>
  <text x="240" y="175" font-size="11" font-weight="600" fill="#3B82F6" text-anchor="middle">M2</text>
  
  <circle cx="420" cy="140" r="12" fill="#10B981" stroke="#ffffff" stroke-width="3"/>
  <text x="420" y="175" font-size="11" font-weight="600" fill="#10B981" text-anchor="middle">M3</text>
  
  <circle cx="600" cy="140" r="12" fill="#8B5CF6" stroke="#ffffff" stroke-width="3"/>
  <text x="600" y="175" font-size="11" font-weight="600" fill="#8B5CF6" text-anchor="middle">M4</text>
  
  <circle cx="780" cy="140" r="12" fill="#F59E0B" stroke="#ffffff" stroke-width="3"/>
  <text x="780" y="175" font-size="11" font-weight="600" fill="#F59E0B" text-anchor="middle">M5</text>
  
  <circle cx="960" cy="140" r="12" fill="#EF4444" stroke="#ffffff" stroke-width="3"/>
  <text x="960" y="175" font-size="11" font-weight="600" fill="#EF4444" text-anchor="middle">M6</text>
  
  <circle cx="1140" cy="140" r="15" fill="#10B981" stroke="#ffffff" stroke-width="3"/>
  <text x="1140" y="145" font-size="12" font-weight="700" fill="#ffffff" text-anchor="middle">✓</text>

  <!-- Phase 1: Foundation -->
  <text x="60" y="220" font-size="11" font-weight="600" fill="#888888" letter-spacing="2">PHASE 1: FOUNDATION (Month 1-2)</text>
  
  <rect x="60" y="240" width="520" height="180" rx="8" fill="#ffffff" stroke="#3B82F6" stroke-width="2" filter="url(#shadow)"/>
  <rect x="60" y="240" width="520" height="10" rx="8 8 0 0" fill="#3B82F6"/>
  
  <text x="80" y="280" font-size="13" font-weight="600" fill="#1a1a1a">Strategy &amp; Setup</text>
  
  <rect x="80" y="295" width="480" height="30" rx="4" fill="#EFF6FF"/>
  <text x="95" y="315" font-size="11" font-weight="400" fill="#1a1a1a">Week 1-2: Keyword research &amp; competitive analysis</text>
  
  <rect x="80" y="330" width="480" height="30" rx="4" fill="#EFF6FF"/>
  <text x="95" y="350" font-size="11" font-weight="400" fill="#1a1a1a">Week 3-4: Content audit &amp; gap analysis</text>
  
  <rect x="80" y="365" width="480" height="30" rx="4" fill="#EFF6FF"/>
  <text x="95" y="385" font-size="11" font-weight="400" fill="#1a1a1a">Week 5-6: Programmatic SEO template design</text>
  
  <rect x="80" y="400" width="480" height="30" rx="4" fill="#EFF6FF"/>
  <text x="95" y="420" font-size="11" font-weight="400" fill="#1a1a1a">Week 7-8: Technical SEO fixes &amp; site optimization</text>

  <!-- Phase 1 Deliverables -->
  <rect x="600" y="240" width="540" height="180" rx="8" fill="#1a1a1a" filter="url(#shadow)"/>
  <text x="620" y="275" font-size="13" font-weight="600" fill="#3B82F6">Phase 1 Deliverables</text>
  <circle cx="630" cy="305" r="4" fill="#3B82F6"/>
  <text x="645" y="309" font-size="11" font-weight="400" fill="#ffffff">40 target keywords prioritized</text>
  <circle cx="630" cy="330" r="4" fill="#3B82F6"/>
  <text x="645" y="334" font-size="11" font-weight="400" fill="#ffffff">Competitive gap report</text>
  <circle cx="630" cy="355" r="4" fill="#3B82F6"/>
  <text x="645" y="359" font-size="11" font-weight="400" fill="#ffffff">5 programmatic templates ready</text>
  <circle cx="630" cy="380" r="4" fill="#3B82F6"/>
  <text x="645" y="384" font-size="11" font-weight="400" fill="#ffffff">Technical SEO audit complete</text>
  <circle cx="630" cy="405" r="4" fill="#3B82F6"/>
  <text x="645" y="409" font-size="11" font-weight="400" fill="#ffffff">First 10 pages published</text>

  <!-- Phase 2: Scale -->
  <text x="60" y="460" font-size="11" font-weight="600" fill="#888888" letter-spacing="2">PHASE 2: SCALE (Month 3-4)</text>
  
  <rect x="60" y="480" width="520" height="180" rx="8" fill="#ffffff" stroke="#10B981" stroke-width="2" filter="url(#shadow)"/>
  <rect x="60" y="480" width="520" height="10" rx="8 8 0 0" fill="#10B981"/>
  
  <text x="80" y="520" font-size="13" font-weight="600" fill="#1a1a1a">Content Production at Scale</text>
  
  <rect x="80" y="535" width="480" height="30" rx="4" fill="#ECFDF5"/>
  <text x="95" y="555" font-size="11" font-weight="400" fill="#1a1a1a">Week 9-10: Launch 30+ comparison pages</text>
  
  <rect x="80" y="570" width="480" height="30" rx="4" fill="#ECFDF5"/>
  <text x="95" y="590" font-size="11" font-weight="400" fill="#1a1a1a">Week 11-12: Launch 20+ integration guides</text>
  
  <rect x="80" y="605" width="480" height="30" rx="4" fill="#ECFDF5"/>
  <text x="95" y="625" font-size="11" font-weight="400" fill="#1a1a1a">Week 13-14: Launch 25+ use case pages</text>
  
  <rect x="80" y="640" width="480" height="30" rx="4" fill="#ECFDF5"/>
  <text x="95" y="660" font-size="11" font-weight="400" fill="#1a1a1a">Week 15-16: Link building &amp; outreach campaign</text>

  <!-- Phase 2 Deliverables -->
  <rect x="600" y="480" width="540" height="180" rx="8" fill="#1a1a1a" filter="url(#shadow)"/>
  <text x="620" y="515" font-size="13" font-weight="600" fill="#10B981">Phase 2 Deliverables</text>
  <circle cx="630" cy="545" r="4" fill="#10B981"/>
  <text x="645" y="549" font-size="11" font-weight="400" fill="#ffffff">75+ programmatic pages live</text>
  <circle cx="630" cy="570" r="4" fill="#10B981"/>
  <text x="645" y="574" font-size="11" font-weight="400" fill="#ffffff">Traffic 2x baseline</text>
  <circle cx="630" cy="595" r="4" fill="#10B981"/>
  <text x="645" y="599" font-size="11" font-weight="400" fill="#ffffff">First organic leads attributed</text>
  <circle cx="630" cy="620" r="4" fill="#10B981"/>
  <text x="645" y="624" font-size="11" font-weight="400" fill="#ffffff">10+ P1 keywords ranking page 1</text>
  <circle cx="630" cy="645" r="4" fill="#10B981"/>
  <text x="645" y="649" font-size="11" font-weight="400" fill="#ffffff">Outranking Pinecone on 3+ terms</text>

  <!-- Phase 3: Optimize -->
  <text x="60" y="700" font-size="11" font-weight="600" fill="#888888" letter-spacing="2">PHASE 3: OPTIMIZE &amp; DOMINATE (Month 5-6)</text>
  
  <rect x="60" y="720" width="520" height="140" rx="8" fill="#ffffff" stroke="#8B5CF6" stroke-width="2" filter="url(#shadow)"/>
  <rect x="60" y="720" width="520" height="10" rx="8 8 0 0" fill="#8B5CF6"/>
  
  <text x="80" y="760" font-size="13" font-weight="600" fill="#1a1a1a">Optimization &amp; GEO Focus</text>
  
  <rect x="80" y="775" width="480" height="25" rx="4" fill="#F5F3FF"/>
  <text x="95" y="793" font-size="11" font-weight="400" fill="#1a1a1a">Performance optimization based on data</text>
  
  <rect x="80" y="805" width="480" height="25" rx="4" fill="#F5F3FF"/>
  <text x="95" y="823" font-size="11" font-weight="400" fill="#1a1a1a">AI search optimization (GEO) push</text>
  
  <rect x="80" y="835" width="480" height="25" rx="4" fill="#F5F3FF"/>
  <text x="95" y="853" font-size="11" font-weight="400" fill="#1a1a1a">Double down on winning content</text>

  <!-- Phase 3 Deliverables -->
  <rect x="600" y="720" width="540" height="140" rx="8" fill="#10B981" filter="url(#shadow)"/>
  <text x="620" y="755" font-size="13" font-weight="600" fill="#ffffff">🎯 Phase 3 Success Criteria</text>
  <circle cx="630" cy="785" r="4" fill="#ffffff"/>
  <text x="645" y="789" font-size="11" font-weight="500" fill="#ffffff">5x organic traffic achieved</text>
  <circle cx="630" cy="810" r="4" fill="#ffffff"/>
  <text x="645" y="814" font-size="11" font-weight="500" fill="#ffffff">#1 rankings on core keywords</text>
  <circle cx="630" cy="835" r="4" fill="#ffffff"/>
  <text x="645" y="839" font-size="11" font-weight="500" fill="#ffffff">Measurable pipeline from organic</text>
  <circle cx="900" cy="785" r="4" fill="#ffffff"/>
  <text x="915" y="789" font-size="11" font-weight="500" fill="#ffffff">Cited in AI search results</text>
  <circle cx="900" cy="810" r="4" fill="#ffffff"/>
  <text x="915" y="814" font-size="11" font-weight="500" fill="#ffffff">Category leadership established</text>

  <!-- Navigation -->
  <text x="60" y="890" font-size="11" font-weight="500" fill="#888888">← 06_metrics.svg | Back to: 00_master_overview.svg →</text>

</svg>

