<svg width="1120" height="532" viewBox="0 0 1120 532" fill="none" xmlns="http://www.w3.org/2000/svg">
  <title>Chroma SEO Strategy Goals</title>
  <defs>
    <style>
      @import url('https://fonts.googleapis.com/css2?family=Inter:wght@400;500;600;700&amp;display=swap');
      text { font-family: 'Inter', -apple-system, BlinkMacSystemFont, 'Segoe UI', sans-serif; }
    </style>
    <marker id="arrowhead" markerWidth="10" markerHeight="7" refX="9" refY="3.5" orient="auto">
      <polygon points="0 0, 10 3.5, 0 7" fill="#1a1a1a" />
    </marker>
  </defs>
  <rect width="100%" height="100%" fill="#ffffff" />
<text x="560" y="45" font-size="18" font-weight="700" fill="#1a1a1a" text-anchor="middle">Chroma SEO Strategy Goals</text>
<text x="560" y="70" font-size="12" font-weight="400" fill="#555555" text-anchor="middle">Organic Growth &amp; Category Dominance Plan (2025-2026)</text>
<line x1="40" y1="90" x2="1080" y2="90" stroke="#e0e0e0" stroke-width="1"/>
<rect x="40" y="115" width="245" height="182" rx="6" fill="#ffffff" stroke="#1a1a1a" stroke-width="1.5" />
<text x="52" y="137" font-size="14" font-weight="600" fill="#1a1a1a" text-anchor="start">Keyword Ownership</text>
<rect x="48" y="153" width="229" height="28" rx="4" fill="#ffffff" stroke="#1a1a1a" stroke-width="1" />
<text x="58" y="173" font-size="12" font-weight="400" fill="#1a1a1a" text-anchor="start">40 high-priority keywords</text>
<rect x="48" y="185" width="229" height="28" rx="4" fill="#ffffff" stroke="#1a1a1a" stroke-width="1" />
<text x="58" y="205" font-size="12" font-weight="400" fill="#1a1a1a" text-anchor="start">&quot;vector database&quot;</text>
<rect x="48" y="217" width="229" height="28" rx="4" fill="#ffffff" stroke="#1a1a1a" stroke-width="1" />
<text x="58" y="237" font-size="12" font-weight="400" fill="#1a1a1a" text-anchor="start">&quot;RAG&quot; terms</text>
<rect x="48" y="249" width="229" height="28" rx="4" fill="#ffffff" stroke="#1a1a1a" stroke-width="1" />
<text x="58" y="269" font-size="12" font-weight="400" fill="#1a1a1a" text-anchor="start">Technical dev terms</text>
<rect x="305" y="115" width="245" height="182" rx="6" fill="#f5f5f5" stroke="#1a1a1a" stroke-width="1.5" />
<text x="317" y="137" font-size="14" font-weight="600" fill="#1a1a1a" text-anchor="start">Traffic Goals</text>
<rect x="313" y="153" width="229" height="28" rx="4" fill="#ffffff" stroke="#1a1a1a" stroke-width="1" />
<text x="323" y="173" font-size="12" font-weight="400" fill="#1a1a1a" text-anchor="start">5x organic traffic</text>
<rect x="313" y="185" width="229" height="28" rx="4" fill="#ffffff" stroke="#1a1a1a" stroke-width="1" />
<text x="323" y="205" font-size="12" font-weight="400" fill="#1a1a1a" text-anchor="start">Top positions in search</text>
<rect x="313" y="217" width="229" height="28" rx="4" fill="#ffffff" stroke="#1a1a1a" stroke-width="1" />
<text x="323" y="237" font-size="12" font-weight="400" fill="#1a1a1a" text-anchor="start">Beat Pinecone benchmark</text>
<rect x="313" y="249" width="229" height="28" rx="4" fill="#ffffff" stroke="#1a1a1a" stroke-width="1" />
<text x="323" y="269" font-size="12" font-weight="400" fill="#1a1a1a" text-anchor="start">Category authority</text>
<rect x="570" y="115" width="245" height="182" rx="6" fill="#ffffff" stroke="#1a1a1a" stroke-width="1.5" />
<text x="582" y="137" font-size="14" font-weight="600" fill="#1a1a1a" text-anchor="start">AI Search Visibility</text>
<rect x="578" y="153" width="229" height="28" rx="4" fill="#ffffff" stroke="#1a1a1a" stroke-width="1" />
<text x="588" y="173" font-size="12" font-weight="400" fill="#1a1a1a" text-anchor="start">ChatGPT citations</text>
<rect x="578" y="185" width="229" height="28" rx="4" fill="#ffffff" stroke="#1a1a1a" stroke-width="1" />
<text x="588" y="205" font-size="12" font-weight="400" fill="#1a1a1a" text-anchor="start">Perplexity answers</text>
<rect x="578" y="217" width="229" height="28" rx="4" fill="#ffffff" stroke="#1a1a1a" stroke-width="1" />
<text x="588" y="237" font-size="12" font-weight="400" fill="#1a1a1a" text-anchor="start">LLM-optimized content</text>
<rect x="578" y="249" width="229" height="28" rx="4" fill="#ffffff" stroke="#1a1a1a" stroke-width="1" />
<text x="588" y="269" font-size="12" font-weight="400" fill="#1a1a1a" text-anchor="start">Retrieval-first structure</text>
<rect x="835" y="115" width="245" height="182" rx="6" fill="#f5f5f5" stroke="#1a1a1a" stroke-width="1.5" />
<text x="847" y="137" font-size="14" font-weight="600" fill="#1a1a1a" text-anchor="start">Conversion</text>
<rect x="843" y="153" width="229" height="28" rx="4" fill="#ffffff" stroke="#1a1a1a" stroke-width="1" />
<text x="853" y="173" font-size="12" font-weight="400" fill="#1a1a1a" text-anchor="start">~30% visitor-to-signup</text>
<rect x="843" y="185" width="229" height="28" rx="4" fill="#ffffff" stroke="#1a1a1a" stroke-width="1" />
<text x="853" y="205" font-size="12" font-weight="400" fill="#1a1a1a" text-anchor="start">PLG motion optimization</text>
<rect x="843" y="217" width="229" height="28" rx="4" fill="#ffffff" stroke="#1a1a1a" stroke-width="1" />
<text x="853" y="237" font-size="12" font-weight="400" fill="#1a1a1a" text-anchor="start">Funnel conversion focus</text>
<rect x="843" y="249" width="229" height="28" rx="4" fill="#ffffff" stroke="#1a1a1a" stroke-width="1" />
<text x="853" y="269" font-size="12" font-weight="400" fill="#1a1a1a" text-anchor="start">2026 signup targets</text>
<rect x="145" y="327" width="130" height="45" rx="6" fill="#ffffff" stroke="#1a1a1a" stroke-width="1.5" />
<text x="210" y="354" font-size="13" font-weight="500" fill="#1a1a1a" text-anchor="middle">Discover</text>
<line x1="275" y1="349" x2="320" y2="349" stroke="#1a1a1a" stroke-width="1.5" marker-end="url(#arrowhead)"/>
<rect x="320" y="327" width="130" height="45" rx="6" fill="#f5f5f5" stroke="#1a1a1a" stroke-width="1.5" />
<text x="385" y="354" font-size="13" font-weight="500" fill="#1a1a1a" text-anchor="middle">Rank</text>
<line x1="450" y1="349" x2="495" y2="349" stroke="#1a1a1a" stroke-width="1.5" marker-end="url(#arrowhead)"/>
<rect x="495" y="327" width="130" height="45" rx="6" fill="#ffffff" stroke="#1a1a1a" stroke-width="1.5" />
<text x="560" y="354" font-size="13" font-weight="500" fill="#1a1a1a" text-anchor="middle">Cite (AI)</text>
<line x1="625" y1="349" x2="670" y2="349" stroke="#1a1a1a" stroke-width="1.5" marker-end="url(#arrowhead)"/>
<rect x="670" y="327" width="130" height="45" rx="6" fill="#f5f5f5" stroke="#1a1a1a" stroke-width="1.5" />
<text x="735" y="354" font-size="13" font-weight="500" fill="#1a1a1a" text-anchor="middle">Convert</text>
<line x1="800" y1="349" x2="845" y2="349" stroke="#1a1a1a" stroke-width="1.5" marker-end="url(#arrowhead)"/>
<rect x="845" y="327" width="130" height="45" rx="6" fill="#ffffff" stroke="#1a1a1a" stroke-width="1.5" />
<text x="910" y="354" font-size="13" font-weight="500" fill="#1a1a1a" text-anchor="middle">Retain</text>
<rect x="40" y="407" width="100" height="70" rx="6" fill="#ffffff" stroke="#1a1a1a" stroke-width="1.5" />
<text x="90" y="439" font-size="22" font-weight="700" fill="#1a1a1a" text-anchor="middle">40</text>
<text x="90" y="459" font-size="10" font-weight="500" fill="#555555" text-anchor="middle">Target Keywords</text>
<rect x="155" y="407" width="100" height="70" rx="6" fill="#ffffff" stroke="#1a1a1a" stroke-width="1.5" />
<text x="205" y="439" font-size="22" font-weight="700" fill="#1a1a1a" text-anchor="middle">5x</text>
<text x="205" y="459" font-size="10" font-weight="500" fill="#555555" text-anchor="middle">Traffic Goal</text>
<rect x="270" y="407" width="100" height="70" rx="6" fill="#ffffff" stroke="#1a1a1a" stroke-width="1.5" />
<text x="320" y="439" font-size="22" font-weight="700" fill="#1a1a1a" text-anchor="middle">30%</text>
<text x="320" y="459" font-size="10" font-weight="500" fill="#555555" text-anchor="middle">Signup Rate</text>
<rect x="740" y="407" width="340" height="122" rx="6" fill="#ffffff" stroke="#1a1a1a" stroke-width="2" stroke-dasharray="6,3"/>
<text x="752" y="431" font-size="13" font-weight="600" fill="#1a1a1a" text-anchor="start">North Star</text>
<text x="752" y="455" font-size="11" font-weight="400" fill="#555555" text-anchor="start">Rankings are core SEO KPI</text>
<text x="752" y="473" font-size="11" font-weight="400" fill="#555555" text-anchor="start">True north star is CONVERSION</text>
<text x="752" y="491" font-size="11" font-weight="400" fill="#555555" text-anchor="start">Product signups = success metric</text>
<text x="752" y="509" font-size="11" font-weight="400" fill="#555555" text-anchor="start">Long vendor lock-in cycles = early attention key</text>
<rect x="40" y="492" width="44" height="20" rx="10" fill="#1a1a1a"  />
<text x="62" y="506" font-size="10" font-weight="600" fill="#ffffff" text-anchor="middle">#seo</text>
<rect x="94" y="492" width="72" height="20" rx="10" fill="#1a1a1a"  />
<text x="130" y="506" font-size="10" font-weight="600" fill="#ffffff" text-anchor="middle">#organic</text>
<rect x="176" y="492" width="86" height="20" rx="10" fill="#1a1a1a"  />
<text x="219" y="506" font-size="10" font-weight="600" fill="#ffffff" text-anchor="middle">#vector-db</text>
<rect x="272" y="492" width="44" height="20" rx="10" fill="#1a1a1a"  />
<text x="294" y="506" font-size="10" font-weight="600" fill="#ffffff" text-anchor="middle">#plg</text>
</svg>