<svg width="1100" height="720" viewBox="0 0 1100 720" fill="none" xmlns="http://www.w3.org/2000/svg">
  <title>Chroma SEO Strategy Overview</title>
  <defs>
    <style>
      @import url('https://fonts.googleapis.com/css2?family=Inter:wght@400;500;600;700&amp;display=swap');
      text { font-family: 'Inter', -apple-system, BlinkMacSystemFont, 'Segoe UI', sans-serif; }
    </style>
    <marker id="arrowhead" markerWidth="10" markerHeight="7" refX="9" refY="3.5" orient="auto">
      <polygon points="0 0, 10 3.5, 0 7" fill="#1a1a1a" />
    </marker>
  </defs>
  <rect width="100%" height="100%" fill="#ffffff" />

  <!-- Title -->
  <text x="550" y="40" font-size="22" font-weight="700" fill="#1a1a1a" text-anchor="middle">Chroma SEO Strategy - Initial Audit</text>
  <text x="550" y="65" font-size="13" font-weight="400" fill="#555555" text-anchor="middle">6 Strategic Goals for Organic Growth &amp; Category Dominance</text>
  
  <!-- Divider -->
  <line x1="40" y1="85" x2="1060" y2="85" stroke="#e9ecef" stroke-width="1"/>

  <!-- Goal 1: Keywords -->
  <rect x="40" y="105" width="320" height="170" rx="8" fill="#fff9db" stroke="#1a1a1a" stroke-width="1.5"/>
  <text x="55" y="130" font-size="14" font-weight="600" fill="#1a1a1a">1. Own 40 High-Priority Keywords</text>
  <rect x="50" y="145" width="300" height="28" rx="4" fill="#ffffff" stroke="#1a1a1a" stroke-width="1"/>
  <text x="62" y="164" font-size="11" font-weight="400" fill="#1a1a1a">Target: Non-branded search terms</text>
  <rect x="50" y="178" width="300" height="28" rx="4" fill="#ffffff" stroke="#1a1a1a" stroke-width="1"/>
  <text x="62" y="197" font-size="11" font-weight="400" fill="#1a1a1a">Examples: "vector database", "RAG"</text>
  <rect x="50" y="211" width="300" height="28" rx="4" fill="#ffffff" stroke="#1a1a1a" stroke-width="1"/>
  <text x="62" y="230" font-size="11" font-weight="400" fill="#1a1a1a">+ Technical terms from strategy audit</text>
  <rect x="50" y="244" width="60" height="22" rx="11" fill="#343a40"/>
  <text x="80" y="259" font-size="10" font-weight="600" fill="#ffffff" text-anchor="middle">40 KWs</text>

  <!-- Goal 2: Category Dominance -->
  <rect x="390" y="105" width="320" height="170" rx="8" fill="#d0bfff" stroke="#1a1a1a" stroke-width="1.5"/>
  <text x="405" y="130" font-size="14" font-weight="600" fill="#1a1a1a">2. Category Dominance in Search</text>
  <rect x="400" y="145" width="300" height="28" rx="4" fill="#ffffff" stroke="#1a1a1a" stroke-width="1"/>
  <text x="412" y="164" font-size="11" font-weight="400" fill="#1a1a1a">Growth target: 5x organic traffic</text>
  <rect x="400" y="178" width="300" height="28" rx="4" fill="#ffffff" stroke="#1a1a1a" stroke-width="1"/>
  <text x="412" y="197" font-size="11" font-weight="400" fill="#1a1a1a">Top positions across high-intent searches</text>
  <rect x="400" y="211" width="300" height="28" rx="4" fill="#ffffff" stroke="#1a1a1a" stroke-width="1"/>
  <text x="412" y="230" font-size="11" font-weight="400" fill="#1a1a1a">Benchmark: Pinecone on "what is vector db"</text>
  <rect x="400" y="244" width="50" height="22" rx="11" fill="#343a40"/>
  <text x="425" y="259" font-size="10" font-weight="600" fill="#ffffff" text-anchor="middle">5x</text>

  <!-- Goal 3: AI Search -->
  <rect x="740" y="105" width="320" height="170" rx="8" fill="#a5d8ff" stroke="#1a1a1a" stroke-width="1.5"/>
  <text x="755" y="130" font-size="14" font-weight="600" fill="#1a1a1a">3. Default Citation in AI Search</text>
  <rect x="750" y="145" width="300" height="28" rx="4" fill="#ffffff" stroke="#1a1a1a" stroke-width="1"/>
  <text x="762" y="164" font-size="11" font-weight="400" fill="#1a1a1a">Platforms: ChatGPT, Perplexity</text>
  <rect x="750" y="178" width="300" height="28" rx="4" fill="#ffffff" stroke="#1a1a1a" stroke-width="1"/>
  <text x="762" y="197" font-size="11" font-weight="400" fill="#1a1a1a">Queries: vectors, RAG, dev workflows</text>
  <rect x="750" y="211" width="300" height="28" rx="4" fill="#ffffff" stroke="#1a1a1a" stroke-width="1"/>
  <text x="762" y="230" font-size="11" font-weight="400" fill="#1a1a1a">Retrieval-first content structures</text>
  <rect x="750" y="244" width="50" height="22" rx="11" fill="#343a40"/>
  <text x="775" y="259" font-size="10" font-weight="600" fill="#ffffff" text-anchor="middle">LLM</text>

  <!-- Goal 4: Programmatic SEO -->
  <rect x="40" y="295" width="320" height="170" rx="8" fill="#b2f2bb" stroke="#1a1a1a" stroke-width="1.5"/>
  <text x="55" y="320" font-size="14" font-weight="600" fill="#1a1a1a">4. Programmatic SEO at Scale</text>
  <rect x="50" y="335" width="300" height="28" rx="4" fill="#ffffff" stroke="#1a1a1a" stroke-width="1"/>
  <text x="62" y="354" font-size="11" font-weight="400" fill="#1a1a1a">Model: Airtable &amp; Canva approach</text>
  <rect x="50" y="368" width="300" height="28" rx="4" fill="#ffffff" stroke="#1a1a1a" stroke-width="1"/>
  <text x="62" y="387" font-size="11" font-weight="400" fill="#1a1a1a">Long-tail content templates</text>
  <rect x="50" y="401" width="300" height="28" rx="4" fill="#ffffff" stroke="#1a1a1a" stroke-width="1"/>
  <text x="62" y="420" font-size="11" font-weight="400" fill="#1a1a1a">"pinecone alternative", "qdrant vs chroma"</text>
  <rect x="50" y="434" width="80" height="22" rx="11" fill="#343a40"/>
  <text x="90" y="449" font-size="10" font-weight="600" fill="#ffffff" text-anchor="middle">pSEO</text>

  <!-- Goal 5: Technical Decision-Makers -->
  <rect x="390" y="295" width="320" height="170" rx="8" fill="#fcc2d7" stroke="#1a1a1a" stroke-width="1.5"/>
  <text x="405" y="320" font-size="14" font-weight="600" fill="#1a1a1a">5. Capture Technical Decision-Makers</text>
  <rect x="400" y="335" width="300" height="28" rx="4" fill="#ffffff" stroke="#1a1a1a" stroke-width="1"/>
  <text x="412" y="354" font-size="11" font-weight="400" fill="#1a1a1a">Target: Recently funded AI startups</text>
  <rect x="400" y="368" width="300" height="28" rx="4" fill="#ffffff" stroke="#1a1a1a" stroke-width="1"/>
  <text x="412" y="387" font-size="11" font-weight="400" fill="#1a1a1a">Personas: Backend eng, ML, founders</text>
  <rect x="400" y="401" width="300" height="28" rx="4" fill="#ffffff" stroke="#1a1a1a" stroke-width="1"/>
  <text x="412" y="420" font-size="11" font-weight="400" fill="#1a1a1a">Use cases: RAG, LLM apps, semantic search</text>
  <rect x="400" y="434" width="100" height="22" rx="11" fill="#343a40"/>
  <text x="450" y="449" font-size="10" font-weight="600" fill="#ffffff" text-anchor="middle">No-Fluff</text>

  <!-- Goal 6: Product Signups -->
  <rect x="740" y="295" width="320" height="170" rx="8" fill="#ffd8a8" stroke="#1a1a1a" stroke-width="1.5"/>
  <text x="755" y="320" font-size="14" font-weight="600" fill="#1a1a1a">6. Drive Product Signups</text>
  <rect x="750" y="335" width="300" height="28" rx="4" fill="#ffffff" stroke="#1a1a1a" stroke-width="1"/>
  <text x="762" y="354" font-size="11" font-weight="400" fill="#1a1a1a">True north star: Conversion (not just rankings)</text>
  <rect x="750" y="368" width="300" height="28" rx="4" fill="#ffffff" stroke="#1a1a1a" stroke-width="1"/>
  <text x="762" y="387" font-size="11" font-weight="400" fill="#1a1a1a">Current: ~30% visitor-to-signup PLG motion</text>
  <rect x="750" y="401" width="300" height="28" rx="4" fill="#ffffff" stroke="#1a1a1a" stroke-width="1"/>
  <text x="762" y="420" font-size="11" font-weight="400" fill="#1a1a1a">Optimize for funnel conversion, 2026 goals</text>
  <rect x="750" y="434" width="60" height="22" rx="11" fill="#343a40"/>
  <text x="780" y="449" font-size="10" font-weight="600" fill="#ffffff" text-anchor="middle">30%</text>

  <!-- Flow Section -->
  <line x1="40" y1="490" x2="1060" y2="490" stroke="#e9ecef" stroke-width="1"/>
  <text x="550" y="520" font-size="14" font-weight="600" fill="#1a1a1a" text-anchor="middle">SEO Execution Flow</text>

  <!-- Flow Steps -->
  <rect x="80" y="545" width="140" height="50" rx="6" fill="#fff9db" stroke="#1a1a1a" stroke-width="1.5"/>
  <text x="150" y="575" font-size="12" font-weight="500" fill="#1a1a1a" text-anchor="middle">Keyword Research</text>
  
  <line x1="220" y1="570" x2="260" y2="570" stroke="#1a1a1a" stroke-width="1.5" marker-end="url(#arrowhead)"/>
  
  <rect x="260" y="545" width="140" height="50" rx="6" fill="#d0bfff" stroke="#1a1a1a" stroke-width="1.5"/>
  <text x="330" y="575" font-size="12" font-weight="500" fill="#1a1a1a" text-anchor="middle">Content Creation</text>
  
  <line x1="400" y1="570" x2="440" y2="570" stroke="#1a1a1a" stroke-width="1.5" marker-end="url(#arrowhead)"/>
  
  <rect x="440" y="545" width="140" height="50" rx="6" fill="#b2f2bb" stroke="#1a1a1a" stroke-width="1.5"/>
  <text x="510" y="575" font-size="12" font-weight="500" fill="#1a1a1a" text-anchor="middle">pSEO Templates</text>
  
  <line x1="580" y1="570" x2="620" y2="570" stroke="#1a1a1a" stroke-width="1.5" marker-end="url(#arrowhead)"/>
  
  <rect x="620" y="545" width="140" height="50" rx="6" fill="#a5d8ff" stroke="#1a1a1a" stroke-width="1.5"/>
  <text x="690" y="575" font-size="12" font-weight="500" fill="#1a1a1a" text-anchor="middle">AI Optimization</text>
  
  <line x1="760" y1="570" x2="800" y2="570" stroke="#1a1a1a" stroke-width="1.5" marker-end="url(#arrowhead)"/>
  
  <rect x="800" y="545" width="140" height="50" rx="6" fill="#ffd8a8" stroke="#1a1a1a" stroke-width="1.5"/>
  <text x="870" y="575" font-size="12" font-weight="500" fill="#1a1a1a" text-anchor="middle">Conversion</text>

  <!-- Key Insight Box -->
  <rect x="40" y="620" width="450" height="85" rx="6" fill="#ffffff" stroke="#ff922b" stroke-width="2" stroke-dasharray="6,3"/>
  <text x="55" y="645" font-size="13" font-weight="600" fill="#1a1a1a">Key Strategic Insight</text>
  <text x="55" y="668" font-size="11" font-weight="400" fill="#555555">Long vendor lock-in cycles in vector DB adoption means</text>
  <text x="55" y="686" font-size="11" font-weight="400" fill="#555555">timing is critical - reach startups during evaluation window</text>

  <!-- Metrics -->
  <rect x="520" y="620" width="100" height="70" rx="6" fill="#ffffff" stroke="#1a1a1a" stroke-width="1.5"/>
  <text x="570" y="652" font-size="22" font-weight="700" fill="#1a1a1a" text-anchor="middle">40</text>
  <text x="570" y="672" font-size="10" font-weight="500" fill="#555555" text-anchor="middle">Keywords</text>

  <rect x="640" y="620" width="100" height="70" rx="6" fill="#ffffff" stroke="#1a1a1a" stroke-width="1.5"/>
  <text x="690" y="652" font-size="22" font-weight="700" fill="#1a1a1a" text-anchor="middle">5x</text>
  <text x="690" y="672" font-size="10" font-weight="500" fill="#555555" text-anchor="middle">Traffic Goal</text>

  <rect x="760" y="620" width="100" height="70" rx="6" fill="#ffffff" stroke="#1a1a1a" stroke-width="1.5"/>
  <text x="810" y="652" font-size="22" font-weight="700" fill="#1a1a1a" text-anchor="middle">30%</text>
  <text x="810" y="672" font-size="10" font-weight="500" fill="#555555" text-anchor="middle">PLG Conversion</text>

  <rect x="880" y="620" width="100" height="70" rx="6" fill="#ffffff" stroke="#1a1a1a" stroke-width="1.5"/>
  <text x="930" y="652" font-size="22" font-weight="700" fill="#1a1a1a" text-anchor="middle">2026</text>
  <text x="930" y="672" font-size="10" font-weight="500" fill="#555555" text-anchor="middle">Target Year</text>

</svg>

