<svg width="900" height="480" viewBox="0 0 900 480" fill="none" xmlns="http://www.w3.org/2000/svg">
  <title>AI Search Citations</title>
  <defs>
    <style>
      @import url('https://fonts.googleapis.com/css2?family=Inter:wght@400;500;600;700&amp;display=swap');
      text { font-family: 'Inter', -apple-system, BlinkMacSystemFont, 'Segoe UI', sans-serif; }
    </style>
    <marker id="arrow" markerWidth="10" markerHeight="7" refX="9" refY="3.5" orient="auto">
      <polygon points="0 0, 10 3.5, 0 7" fill="#1a1a1a" />
    </marker>
  </defs>
  <rect width="100%" height="100%" fill="#ffffff" />

<text x="450" y="45" font-size="20" font-weight="700" fill="#1a1a1a" text-anchor="middle">Goal 3: Default Citation in AI Search</text>
<text x="450" y="72" font-size="13" font-weight="400" fill="#666666" text-anchor="middle">Surface as preferred answer in ChatGPT, Perplexity &amp; LLM platforms</text>
<line x1="60" y1="95" x2="840" y2="95" stroke="#e0e0e0" stroke-width="1" />
<rect x="50" y="140" width="140" height="40" rx="4" fill="#f5f5f5" stroke="#1a1a1a" stroke-width="1.5"/>
<text x="120" y="165" font-size="13" font-weight="500" fill="#1a1a1a" text-anchor="middle">Structure Content</text>
<line x1="190" y1="160" x2="250" y2="160" stroke="#1a1a1a" stroke-width="1.5" marker-end="url(#arrow)"/>
<rect x="250" y="140" width="140" height="40" rx="4" fill="#f5f5f5" stroke="#1a1a1a" stroke-width="1.5"/>
<text x="320" y="165" font-size="13" font-weight="500" fill="#1a1a1a" text-anchor="middle">Get Indexed</text>
<line x1="390" y1="160" x2="450" y2="160" stroke="#1a1a1a" stroke-width="1.5" marker-end="url(#arrow)"/>
<rect x="450" y="140" width="140" height="40" rx="4" fill="#f5f5f5" stroke="#1a1a1a" stroke-width="1.5"/>
<text x="520" y="165" font-size="13" font-weight="500" fill="#1a1a1a" text-anchor="middle">LLM Retrieves</text>
<line x1="590" y1="160" x2="650" y2="160" stroke="#1a1a1a" stroke-width="1.5" marker-end="url(#arrow)"/>
<rect x="650" y="140" width="140" height="40" rx="4" fill="#f5f5f5" stroke="#1a1a1a" stroke-width="1.5"/>
<text x="720" y="165" font-size="13" font-weight="500" fill="#1a1a1a" text-anchor="middle">Get Cited</text>
<text x="100" y="250" font-size="14" font-weight="600" fill="#1a1a1a" text-anchor="start">Target Platforms</text>
<line x1="100" y1="256" x2="228" y2="256" stroke="#1a1a1a" stroke-width="1" />
<circle cx="100" cy="281" r="3" fill="#1a1a1a"/>
<text x="112" y="285" font-size="12" font-weight="400" fill="#1a1a1a" text-anchor="start">ChatGPT / OpenAI</text>
<circle cx="100" cy="307" r="3" fill="#1a1a1a"/>
<text x="112" y="311" font-size="12" font-weight="400" fill="#1a1a1a" text-anchor="start">Perplexity AI</text>
<circle cx="100" cy="333" r="3" fill="#1a1a1a"/>
<text x="112" y="337" font-size="12" font-weight="400" fill="#1a1a1a" text-anchor="start">Google AI Overviews</text>
<circle cx="100" cy="359" r="3" fill="#1a1a1a"/>
<text x="112" y="363" font-size="12" font-weight="400" fill="#1a1a1a" text-anchor="start">Claude / Anthropic</text>
<text x="380" y="250" font-size="14" font-weight="600" fill="#1a1a1a" text-anchor="start">Query Types</text>
<line x1="380" y1="256" x2="468" y2="256" stroke="#1a1a1a" stroke-width="1" />
<circle cx="380" cy="281" r="3" fill="#1a1a1a"/>
<text x="392" y="285" font-size="12" font-weight="400" fill="#1a1a1a" text-anchor="start">Vector database questions</text>
<circle cx="380" cy="307" r="3" fill="#1a1a1a"/>
<text x="392" y="311" font-size="12" font-weight="400" fill="#1a1a1a" text-anchor="start">RAG implementation</text>
<circle cx="380" cy="333" r="3" fill="#1a1a1a"/>
<text x="392" y="337" font-size="12" font-weight="400" fill="#1a1a1a" text-anchor="start">Developer workflows</text>
<circle cx="380" cy="359" r="3" fill="#1a1a1a"/>
<text x="392" y="363" font-size="12" font-weight="400" fill="#1a1a1a" text-anchor="start">Technical comparisons</text>
<text x="660" y="250" font-size="14" font-weight="600" fill="#1a1a1a" text-anchor="start">Content Strategy</text>
<line x1="660" y1="256" x2="788" y2="256" stroke="#1a1a1a" stroke-width="1" />
<circle cx="660" cy="281" r="3" fill="#1a1a1a"/>
<text x="672" y="285" font-size="12" font-weight="400" fill="#1a1a1a" text-anchor="start">Retrieval-first structure</text>
<circle cx="660" cy="307" r="3" fill="#1a1a1a"/>
<text x="672" y="311" font-size="12" font-weight="400" fill="#1a1a1a" text-anchor="start">Clear factual answers</text>
<circle cx="660" cy="333" r="3" fill="#1a1a1a"/>
<text x="672" y="337" font-size="12" font-weight="400" fill="#1a1a1a" text-anchor="start">Structured data markup</text>
<circle cx="660" cy="359" r="3" fill="#1a1a1a"/>
<text x="672" y="363" font-size="12" font-weight="400" fill="#1a1a1a" text-anchor="start">Authoritative citations</text>
</svg>