<svg width="1000" height="300" viewBox="0 0 1000 300" fill="none" xmlns="http://www.w3.org/2000/svg">
  <title>Implementation Roadmap</title>
  <defs>
    <style>
      @import url('https://fonts.googleapis.com/css2?family=Inter:wght@400;500;600;700&amp;display=swap');
      text { font-family: 'Inter', -apple-system, BlinkMacSystemFont, 'Segoe UI', sans-serif; }
    </style>
    <marker id="arrow" markerWidth="10" markerHeight="7" refX="9" refY="3.5" orient="auto">
      <polygon points="0 0, 10 3.5, 0 7" fill="#1a1a1a" />
    </marker>
  </defs>
  <rect width="100%" height="100%" fill="#ffffff" />

<text x="500" y="45" font-size="20" font-weight="700" fill="#1a1a1a" text-anchor="middle">SEO Strategy Roadmap</text>
<line x1="80" y1="150" x2="920" y2="150" stroke="#1a1a1a" stroke-width="2" />
<circle cx="80" cy="150" r="8" fill="#1a1a1a"/>
<circle cx="80" cy="150" r="5" fill="#ffffff"/>
<text x="80" y="180" font-size="12" font-weight="600" fill="#1a1a1a" text-anchor="middle">Q1 2025</text>
<text x="80" y="109" font-size="11" font-weight="400" fill="#333333" text-anchor="middle">Keyword Research</text>
<text x="80" y="125" font-size="11" font-weight="400" fill="#333333" text-anchor="middle">&amp; Content Audit</text>
<circle cx="290" cy="150" r="8" fill="#1a1a1a"/>
<circle cx="290" cy="150" r="5" fill="#ffffff"/>
<text x="290" y="180" font-size="12" font-weight="600" fill="#1a1a1a" text-anchor="middle">Q2 2025</text>
<text x="290" y="109" font-size="11" font-weight="400" fill="#333333" text-anchor="middle">Programmatic</text>
<text x="290" y="125" font-size="11" font-weight="400" fill="#333333" text-anchor="middle">SEO Setup</text>
<circle cx="500" cy="150" r="8" fill="#1a1a1a"/>
<circle cx="500" cy="150" r="5" fill="#ffffff"/>
<text x="500" y="180" font-size="12" font-weight="600" fill="#1a1a1a" text-anchor="middle">Q3 2025</text>
<text x="500" y="109" font-size="11" font-weight="400" fill="#333333" text-anchor="middle">Scale Content</text>
<text x="500" y="125" font-size="11" font-weight="400" fill="#333333" text-anchor="middle">Production</text>
<circle cx="710" cy="150" r="8" fill="#1a1a1a"/>
<circle cx="710" cy="150" r="5" fill="#ffffff"/>
<text x="710" y="180" font-size="12" font-weight="600" fill="#1a1a1a" text-anchor="middle">Q4 2025</text>
<text x="710" y="109" font-size="11" font-weight="400" fill="#333333" text-anchor="middle">AI Search</text>
<text x="710" y="125" font-size="11" font-weight="400" fill="#333333" text-anchor="middle">Optimization</text>
<circle cx="920" cy="150" r="8" fill="#1a1a1a"/>
<circle cx="920" cy="150" r="5" fill="#ffffff"/>
<text x="920" y="180" font-size="12" font-weight="600" fill="#1a1a1a" text-anchor="middle">2026</text>
<text x="920" y="109" font-size="11" font-weight="400" fill="#333333" text-anchor="middle">Conversion</text>
<text x="920" y="125" font-size="11" font-weight="400" fill="#333333" text-anchor="middle">Goals</text>
</svg>