<svg width="900" height="502" viewBox="0 0 900 502" fill="none" xmlns="http://www.w3.org/2000/svg">
  <title>Chroma vs Competitors</title>
  <defs>
    <style>
      @import url('https://fonts.googleapis.com/css2?family=Inter:wght@400;500;600;700&amp;display=swap');
      text { font-family: 'Inter', -apple-system, BlinkMacSystemFont, 'Segoe UI', sans-serif; }
    </style>
    <marker id="arrowhead" markerWidth="10" markerHeight="7" refX="9" refY="3.5" orient="auto">
      <polygon points="0 0, 10 3.5, 0 7" fill="#1a1a1a" />
    </marker>
  </defs>
  <rect width="100%" height="100%" fill="#ffffff" />
<text x="450" y="45" font-size="18" font-weight="700" fill="#1a1a1a" text-anchor="middle">Chroma vs Competitors</text>
<text x="450" y="180" font-size="16" font-weight="700" fill="#777777" text-anchor="middle">VS</text>
<rect x="40" y="80" width="340" height="182" rx="6" fill="#b2f2bb" stroke="#1a1a1a" stroke-width="1.5" />
<text x="52" y="102" font-size="14" font-weight="600" fill="#1a1a1a" text-anchor="start">✅ Chroma Strengths</text>
<rect x="48" y="118" width="324" height="28" rx="4" fill="#ffffff" stroke="#1a1a1a" stroke-width="1" />
<text x="58" y="138" font-size="12" font-weight="400" fill="#1a1a1a" text-anchor="start">Open-source first</text>
<rect x="48" y="150" width="324" height="28" rx="4" fill="#ffffff" stroke="#1a1a1a" stroke-width="1" />
<text x="58" y="170" font-size="12" font-weight="400" fill="#1a1a1a" text-anchor="start">25k GitHub stars</text>
<rect x="48" y="182" width="324" height="28" rx="4" fill="#ffffff" stroke="#1a1a1a" stroke-width="1" />
<text x="58" y="202" font-size="12" font-weight="400" fill="#1a1a1a" text-anchor="start">Easy integration</text>
<rect x="48" y="214" width="324" height="28" rx="4" fill="#ffffff" stroke="#1a1a1a" stroke-width="1" />
<text x="58" y="234" font-size="12" font-weight="400" fill="#1a1a1a" text-anchor="start">AI-native</text>
<rect x="520" y="80" width="340" height="182" rx="6" fill="#ffd8a8" stroke="#1a1a1a" stroke-width="1.5" />
<text x="532" y="102" font-size="14" font-weight="600" fill="#1a1a1a" text-anchor="start">⚠️ Competitor Features</text>
<rect x="528" y="118" width="324" height="28" rx="4" fill="#ffffff" stroke="#1a1a1a" stroke-width="1" />
<text x="538" y="138" font-size="12" font-weight="400" fill="#1a1a1a" text-anchor="start">Enterprise support</text>
<rect x="528" y="150" width="324" height="28" rx="4" fill="#ffffff" stroke="#1a1a1a" stroke-width="1" />
<text x="538" y="170" font-size="12" font-weight="400" fill="#1a1a1a" text-anchor="start">Managed hosting</text>
<rect x="528" y="182" width="324" height="28" rx="4" fill="#ffffff" stroke="#1a1a1a" stroke-width="1" />
<text x="538" y="202" font-size="12" font-weight="400" fill="#1a1a1a" text-anchor="start">More docs</text>
<rect x="528" y="214" width="324" height="28" rx="4" fill="#ffffff" stroke="#1a1a1a" stroke-width="1" />
<text x="538" y="234" font-size="12" font-weight="400" fill="#1a1a1a" text-anchor="start">Larger teams</text>
<rect x="300" y="292" width="300" height="150" rx="6" fill="#f8f9fa" stroke="#1a1a1a" stroke-width="1.5" />
<text x="312" y="314" font-size="14" font-weight="600" fill="#1a1a1a" text-anchor="start">Shared / Common</text>
<rect x="308" y="330" width="284" height="28" rx="4" fill="#ffffff" stroke="#1a1a1a" stroke-width="1" />
<text x="318" y="350" font-size="12" font-weight="400" fill="#1a1a1a" text-anchor="start">Vector search</text>
<rect x="308" y="362" width="284" height="28" rx="4" fill="#ffffff" stroke="#1a1a1a" stroke-width="1" />
<text x="318" y="382" font-size="12" font-weight="400" fill="#1a1a1a" text-anchor="start">Python SDK</text>
<rect x="308" y="394" width="284" height="28" rx="4" fill="#ffffff" stroke="#1a1a1a" stroke-width="1" />
<text x="318" y="414" font-size="12" font-weight="400" fill="#1a1a1a" text-anchor="start">Cloud offering</text>
</svg>