<svg width="900" height="480" viewBox="0 0 900 480" fill="none" xmlns="http://www.w3.org/2000/svg">
  <title>Competitive Landscape</title>
  <defs>
    <style>
      @import url('https://fonts.googleapis.com/css2?family=Inter:wght@400;500;600;700&amp;display=swap');
      text { font-family: 'Inter', -apple-system, BlinkMacSystemFont, 'Segoe UI', sans-serif; }
    </style>
    <marker id="arrow" markerWidth="10" markerHeight="7" refX="9" refY="3.5" orient="auto">
      <polygon points="0 0, 10 3.5, 0 7" fill="#1a1a1a" />
    </marker>
  </defs>
  <rect width="100%" height="100%" fill="#ffffff" />

<text x="450" y="45" font-size="20" font-weight="700" fill="#1a1a1a" text-anchor="middle">Competitive SEO Landscape</text>
<line x1="60" y1="75" x2="840" y2="75" stroke="#e0e0e0" stroke-width="1" />
<text x="180" y="120" font-size="16" font-weight="700" fill="#1a1a1a" text-anchor="middle">Chroma Opportunities</text>
<line x1="80" y1="126" x2="280" y2="126" stroke="#1a1a1a" stroke-width="1" />
<circle cx="80" cy="156" r="3" fill="#1a1a1a"/>
<text x="92" y="160" font-size="13" font-weight="400" fill="#1a1a1a" text-anchor="start">Open-source credibility</text>
<circle cx="80" cy="186" r="3" fill="#1a1a1a"/>
<text x="92" y="190" font-size="13" font-weight="400" fill="#1a1a1a" text-anchor="start">Developer community (25k stars)</text>
<circle cx="80" cy="216" r="3" fill="#1a1a1a"/>
<text x="92" y="220" font-size="13" font-weight="400" fill="#1a1a1a" text-anchor="start">AI-native positioning</text>
<circle cx="80" cy="246" r="3" fill="#1a1a1a"/>
<text x="92" y="250" font-size="13" font-weight="400" fill="#1a1a1a" text-anchor="start">Technical content depth</text>
<circle cx="80" cy="276" r="3" fill="#1a1a1a"/>
<text x="92" y="280" font-size="13" font-weight="400" fill="#1a1a1a" text-anchor="start">Programmatic SEO potential</text>
<text x="450" y="220" font-size="20" font-weight="700" fill="#999999" text-anchor="middle">vs</text>
<text x="720" y="120" font-size="16" font-weight="700" fill="#1a1a1a" text-anchor="middle">Competitor Advantages</text>
<line x1="600" y1="126" x2="840" y2="126" stroke="#1a1a1a" stroke-width="1" />
<circle cx="600" cy="156" r="3" fill="#1a1a1a"/>
<text x="612" y="160" font-size="13" font-weight="400" fill="#1a1a1a" text-anchor="start">Pinecone: &quot;vector database&quot; leader</text>
<circle cx="600" cy="186" r="3" fill="#1a1a1a"/>
<text x="612" y="190" font-size="13" font-weight="400" fill="#1a1a1a" text-anchor="start">More documentation coverage</text>
<circle cx="600" cy="216" r="3" fill="#1a1a1a"/>
<text x="612" y="220" font-size="13" font-weight="400" fill="#1a1a1a" text-anchor="start">Larger content teams</text>
<circle cx="600" cy="246" r="3" fill="#1a1a1a"/>
<text x="612" y="250" font-size="13" font-weight="400" fill="#1a1a1a" text-anchor="start">Enterprise SEO investment</text>
<circle cx="600" cy="276" r="3" fill="#1a1a1a"/>
<text x="612" y="280" font-size="13" font-weight="400" fill="#1a1a1a" text-anchor="start">Established domain authority</text>
<line x1="60" y1="340" x2="840" y2="340" stroke="#e0e0e0" stroke-width="1" />
<text x="450" y="360" font-size="14" font-weight="600" fill="#1a1a1a" text-anchor="middle">Common Ground</text>
<text x="150" y="395" font-size="12" font-weight="400" fill="#666666" text-anchor="start">Vector search category</text>
<text x="330" y="395" font-size="12" font-weight="400" fill="#666666" text-anchor="start">Developer audience</text>
<text x="510" y="395" font-size="12" font-weight="400" fill="#666666" text-anchor="start">Technical content</text>
<text x="690" y="395" font-size="12" font-weight="400" fill="#666666" text-anchor="start">AI/LLM focus</text>
</svg>