<svg width="900" height="480" viewBox="0 0 900 480" fill="none" xmlns="http://www.w3.org/2000/svg">
  <title>Target Audience</title>
  <defs>
    <style>
      @import url('https://fonts.googleapis.com/css2?family=Inter:wght@400;500;600;700&amp;display=swap');
      text { font-family: 'Inter', -apple-system, BlinkMacSystemFont, 'Segoe UI', sans-serif; }
    </style>
    <marker id="arrow" markerWidth="10" markerHeight="7" refX="9" refY="3.5" orient="auto">
      <polygon points="0 0, 10 3.5, 0 7" fill="#1a1a1a" />
    </marker>
  </defs>
  <rect width="100%" height="100%" fill="#ffffff" />

<text x="450" y="45" font-size="20" font-weight="700" fill="#1a1a1a" text-anchor="middle">Goal 5: Capture Technical Decision-Makers</text>
<text x="450" y="72" font-size="13" font-weight="400" fill="#666666" text-anchor="middle">Reach recently funded AI startups with no-fluff content</text>
<line x1="60" y1="95" x2="840" y2="95" stroke="#e0e0e0" stroke-width="1" />
<text x="80" y="140" font-size="18" font-weight="700" fill="#1a1a1a" text-anchor="start">Who</text>
<text x="80" y="180" font-size="14" font-weight="600" fill="#1a1a1a" text-anchor="start">Primary Roles</text>
<line x1="80" y1="186" x2="175" y2="186" stroke="#1a1a1a" stroke-width="1" />
<circle cx="80" cy="206" r="3" fill="#1a1a1a"/>
<text x="92" y="210" font-size="13" font-weight="400" fill="#1a1a1a" text-anchor="start">Backend engineers</text>
<circle cx="80" cy="232" r="3" fill="#1a1a1a"/>
<text x="92" y="236" font-size="13" font-weight="400" fill="#1a1a1a" text-anchor="start">ML practitioners</text>
<circle cx="80" cy="258" r="3" fill="#1a1a1a"/>
<text x="92" y="262" font-size="13" font-weight="400" fill="#1a1a1a" text-anchor="start">Technical founders</text>
<circle cx="80" cy="284" r="3" fill="#1a1a1a"/>
<text x="92" y="288" font-size="13" font-weight="400" fill="#1a1a1a" text-anchor="start">AI/ML team leads</text>
<text x="80" y="334" font-size="14" font-weight="600" fill="#1a1a1a" text-anchor="start">Target Companies</text>
<line x1="80" y1="340" x2="200" y2="340" stroke="#1a1a1a" stroke-width="1" />
<circle cx="80" cy="360" r="3" fill="#1a1a1a"/>
<text x="92" y="364" font-size="13" font-weight="400" fill="#1a1a1a" text-anchor="start">Recently funded AI startups</text>
<circle cx="80" cy="386" r="3" fill="#1a1a1a"/>
<text x="92" y="390" font-size="13" font-weight="400" fill="#1a1a1a" text-anchor="start">Series A-C companies</text>
<circle cx="80" cy="412" r="3" fill="#1a1a1a"/>
<text x="92" y="416" font-size="13" font-weight="400" fill="#1a1a1a" text-anchor="start">AI-native organizations</text>
<text x="500" y="140" font-size="18" font-weight="700" fill="#1a1a1a" text-anchor="start">What Content</text>
<text x="500" y="180" font-size="14" font-weight="600" fill="#1a1a1a" text-anchor="start">Topics</text>
<line x1="500" y1="186" x2="555" y2="186" stroke="#1a1a1a" stroke-width="1" />
<circle cx="500" cy="206" r="3" fill="#1a1a1a"/>
<text x="512" y="210" font-size="13" font-weight="400" fill="#1a1a1a" text-anchor="start">RAG implementation</text>
<circle cx="500" cy="232" r="3" fill="#1a1a1a"/>
<text x="512" y="236" font-size="13" font-weight="400" fill="#1a1a1a" text-anchor="start">LLM application building</text>
<circle cx="500" cy="258" r="3" fill="#1a1a1a"/>
<text x="512" y="262" font-size="13" font-weight="400" fill="#1a1a1a" text-anchor="start">Semantic search setup</text>
<circle cx="500" cy="284" r="3" fill="#1a1a1a"/>
<text x="512" y="288" font-size="13" font-weight="400" fill="#1a1a1a" text-anchor="start">Production deployment</text>
<text x="500" y="334" font-size="14" font-weight="600" fill="#1a1a1a" text-anchor="start">Style</text>
<line x1="500" y1="340" x2="540" y2="340" stroke="#1a1a1a" stroke-width="1" />
<circle cx="500" cy="360" r="3" fill="#1a1a1a"/>
<text x="512" y="364" font-size="13" font-weight="400" fill="#1a1a1a" text-anchor="start">Deeply technical</text>
<circle cx="500" cy="386" r="3" fill="#1a1a1a"/>
<text x="512" y="390" font-size="13" font-weight="400" fill="#1a1a1a" text-anchor="start">No marketing fluff</text>
<circle cx="500" cy="412" r="3" fill="#1a1a1a"/>
<text x="512" y="416" font-size="13" font-weight="400" fill="#1a1a1a" text-anchor="start">Code-first examples</text>
<circle cx="500" cy="438" r="3" fill="#1a1a1a"/>
<text x="512" y="442" font-size="13" font-weight="400" fill="#1a1a1a" text-anchor="start">Real-world use cases</text>
<line x1="60" y1="420" x2="840" y2="420" stroke="#e0e0e0" stroke-width="1" />
<text x="80" y="450" font-size="13" font-weight="600" fill="#1a1a1a" text-anchor="start">Strategic insight:</text>
<text x="200" y="450" font-size="13" font-weight="400" fill="#333333" text-anchor="start">Long vendor lock-in cycles mean early attention is critical for adoption.</text>
</svg>