<svg width="1120" height="500" viewBox="0 0 1120 500" fill="none" xmlns="http://www.w3.org/2000/svg">
  <title>Chroma GTM Strategy Overview</title>
  <defs>
    <style>
      @import url('https://fonts.googleapis.com/css2?family=Inter:wght@400;500;600;700&amp;display=swap');
      text { font-family: 'Inter', -apple-system, BlinkMacSystemFont, 'Segoe UI', sans-serif; }
    </style>
    <marker id="arrowhead" markerWidth="10" markerHeight="7" refX="9" refY="3.5" orient="auto">
      <polygon points="0 0, 10 3.5, 0 7" fill="#1a1a1a" />
    </marker>
  </defs>
  <rect width="100%" height="100%" fill="#ffffff" />
<text x="560" y="45" font-size="18" font-weight="700" fill="#1a1a1a" text-anchor="middle">Chroma GTM Strategy Overview</text>
<text x="560" y="70" font-size="12" font-weight="400" fill="#555555" text-anchor="middle">Data Layer &amp; Customer Acquisition Pipeline</text>
<line x1="40" y1="90" x2="1080" y2="90" stroke="#e9ecef" stroke-width="1"/>
<rect x="40" y="115" width="245" height="150" rx="6" fill="#fff9db" stroke="#1a1a1a" stroke-width="1.5" />
<text x="52" y="137" font-size="14" font-weight="600" fill="#1a1a1a" text-anchor="start">📥 Data Sources</text>
<rect x="48" y="153" width="229" height="28" rx="4" fill="#ffffff" stroke="#1a1a1a" stroke-width="1" />
<text x="58" y="173" font-size="12" font-weight="400" fill="#1a1a1a" text-anchor="start">Chroma Database</text>
<rect x="48" y="185" width="229" height="28" rx="4" fill="#ffffff" stroke="#1a1a1a" stroke-width="1" />
<text x="58" y="205" font-size="12" font-weight="400" fill="#1a1a1a" text-anchor="start">PostHog Events</text>
<rect x="48" y="217" width="229" height="28" rx="4" fill="#ffffff" stroke="#1a1a1a" stroke-width="1" />
<text x="58" y="237" font-size="12" font-weight="400" fill="#1a1a1a" text-anchor="start">Signal List</text>
<rect x="305" y="115" width="245" height="150" rx="6" fill="#d0bfff" stroke="#1a1a1a" stroke-width="1.5" />
<text x="317" y="137" font-size="14" font-weight="600" fill="#1a1a1a" text-anchor="start">⚡ Enrichment</text>
<rect x="313" y="153" width="229" height="28" rx="4" fill="#ffffff" stroke="#1a1a1a" stroke-width="1" />
<text x="323" y="173" font-size="12" font-weight="400" fill="#1a1a1a" text-anchor="start">Sumble</text>
<rect x="313" y="185" width="229" height="28" rx="4" fill="#ffffff" stroke="#1a1a1a" stroke-width="1" />
<text x="323" y="205" font-size="12" font-weight="400" fill="#1a1a1a" text-anchor="start">Clay</text>
<rect x="313" y="217" width="229" height="28" rx="4" fill="#ffffff" stroke="#1a1a1a" stroke-width="1" />
<text x="323" y="237" font-size="12" font-weight="400" fill="#1a1a1a" text-anchor="start">Claude AI</text>
<rect x="570" y="115" width="245" height="150" rx="6" fill="#b2f2bb" stroke="#1a1a1a" stroke-width="1.5" />
<text x="582" y="137" font-size="14" font-weight="600" fill="#1a1a1a" text-anchor="start">🎯 Outreach</text>
<rect x="578" y="153" width="229" height="28" rx="4" fill="#ffffff" stroke="#1a1a1a" stroke-width="1" />
<text x="588" y="173" font-size="12" font-weight="400" fill="#1a1a1a" text-anchor="start">LinkedIn ABM</text>
<rect x="578" y="185" width="229" height="28" rx="4" fill="#ffffff" stroke="#1a1a1a" stroke-width="1" />
<text x="588" y="205" font-size="12" font-weight="400" fill="#1a1a1a" text-anchor="start">Email Sequences</text>
<rect x="578" y="217" width="229" height="28" rx="4" fill="#ffffff" stroke="#1a1a1a" stroke-width="1" />
<text x="588" y="237" font-size="12" font-weight="400" fill="#1a1a1a" text-anchor="start">Content</text>
<rect x="835" y="115" width="245" height="150" rx="6" fill="#ffd8a8" stroke="#1a1a1a" stroke-width="1.5" />
<text x="847" y="137" font-size="14" font-weight="600" fill="#1a1a1a" text-anchor="start">📊 Outcomes</text>
<rect x="843" y="153" width="229" height="28" rx="4" fill="#ffffff" stroke="#1a1a1a" stroke-width="1" />
<text x="853" y="173" font-size="12" font-weight="400" fill="#1a1a1a" text-anchor="start">SQLs</text>
<rect x="843" y="185" width="229" height="28" rx="4" fill="#ffffff" stroke="#1a1a1a" stroke-width="1" />
<text x="853" y="205" font-size="12" font-weight="400" fill="#1a1a1a" text-anchor="start">Cloud Signups</text>
<rect x="843" y="217" width="229" height="28" rx="4" fill="#ffffff" stroke="#1a1a1a" stroke-width="1" />
<text x="853" y="237" font-size="12" font-weight="400" fill="#1a1a1a" text-anchor="start">Deals</text>
<rect x="145" y="295" width="130" height="45" rx="6" fill="#fff9db" stroke="#1a1a1a" stroke-width="1.5" />
<text x="210" y="322" font-size="13" font-weight="500" fill="#1a1a1a" text-anchor="middle">Discover</text>
<line x1="275" y1="317" x2="320" y2="317" stroke="#1a1a1a" stroke-width="1.5" marker-end="url(#arrowhead)"/>
<rect x="320" y="295" width="130" height="45" rx="6" fill="#d0bfff" stroke="#1a1a1a" stroke-width="1.5" />
<text x="385" y="322" font-size="13" font-weight="500" fill="#1a1a1a" text-anchor="middle">Enrich</text>
<line x1="450" y1="317" x2="495" y2="317" stroke="#1a1a1a" stroke-width="1.5" marker-end="url(#arrowhead)"/>
<rect x="495" y="295" width="130" height="45" rx="6" fill="#a5d8ff" stroke="#1a1a1a" stroke-width="1.5" />
<text x="560" y="322" font-size="13" font-weight="500" fill="#1a1a1a" text-anchor="middle">Qualify</text>
<line x1="625" y1="317" x2="670" y2="317" stroke="#1a1a1a" stroke-width="1.5" marker-end="url(#arrowhead)"/>
<rect x="670" y="295" width="130" height="45" rx="6" fill="#b2f2bb" stroke="#1a1a1a" stroke-width="1.5" />
<text x="735" y="322" font-size="13" font-weight="500" fill="#1a1a1a" text-anchor="middle">Engage</text>
<line x1="800" y1="317" x2="845" y2="317" stroke="#1a1a1a" stroke-width="1.5" marker-end="url(#arrowhead)"/>
<rect x="845" y="295" width="130" height="45" rx="6" fill="#ffd8a8" stroke="#1a1a1a" stroke-width="1.5" />
<text x="910" y="322" font-size="13" font-weight="500" fill="#1a1a1a" text-anchor="middle">Convert</text>
<rect x="40" y="375" width="100" height="70" rx="6" fill="#ffffff" stroke="#1a1a1a" stroke-width="1.5" />
<text x="90" y="407" font-size="22" font-weight="700" fill="#1a1a1a" text-anchor="middle">2,000</text>
<text x="90" y="427" font-size="10" font-weight="500" fill="#555555" text-anchor="middle">Target Companies</text>
<rect x="155" y="375" width="100" height="70" rx="6" fill="#ffffff" stroke="#1a1a1a" stroke-width="1.5" />
<text x="205" y="407" font-size="22" font-weight="700" fill="#1a1a1a" text-anchor="middle">$5-10k</text>
<text x="205" y="427" font-size="10" font-weight="500" fill="#555555" text-anchor="middle">Monthly Budget</text>
<rect x="270" y="375" width="100" height="70" rx="6" fill="#ffffff" stroke="#1a1a1a" stroke-width="1.5" />
<text x="320" y="407" font-size="22" font-weight="700" fill="#1a1a1a" text-anchor="middle">25k</text>
<text x="320" y="427" font-size="10" font-weight="500" fill="#555555" text-anchor="middle">GitHub Stars</text>
<rect x="740" y="375" width="340" height="104" rx="6" fill="#ffffff" stroke="#ff922b" stroke-width="2" stroke-dasharray="6,3"/>
<text x="752" y="399" font-size="13" font-weight="600" fill="#1a1a1a" text-anchor="start">💡 Key Insight</text>
<text x="752" y="423" font-size="11" font-weight="400" fill="#555555" text-anchor="start">Using Chroma Database for prospect list</text>
<text x="752" y="441" font-size="11" font-weight="400" fill="#555555" text-anchor="start">Product events tracked in PostHog</text>
<text x="752" y="459" font-size="11" font-weight="400" fill="#555555" text-anchor="start">Sumble, Clay &amp; Claude for expansion</text>
<rect x="40" y="460" width="93" height="20" rx="10" fill="#343a40"  />
<text x="86" y="474" font-size="10" font-weight="600" fill="#ffffff" text-anchor="middle">#data-layer</text>
<rect x="143" y="460" width="44" height="20" rx="10" fill="#343a40"  />
<text x="165" y="474" font-size="10" font-weight="600" fill="#ffffff" text-anchor="middle">#gtm</text>
<rect x="197" y="460" width="44" height="20" rx="10" fill="#343a40"  />
<text x="219" y="474" font-size="10" font-weight="600" fill="#ffffff" text-anchor="middle">#abm</text>
</svg>